<svg xmlns="http://www.w3.org/2000/svg" version="1.1" width="187" height="167" viewBox="0 0 187 167" style="shape-rendering:geometricPrecision; text-rendering:geometricPrecision; image-rendering:optimizeQuality; fill-rule:evenodd; clip-rule:evenodd" xmlns:xlink="http://www.w3.org/1999/xlink">
<path fill="#f9c885" stroke="#f9c885" stroke-width="0.5" d="M 106.88,105.16 c 0.73,-0.48 1.11,-1.16 1.16,-2.05 c 0.32,0.12 0.54,0.35 0.65,0.68 c 0.46,4.39 0.69,3.46 4.06,2.12 c -0.01,1.04 -0.08,2.07 -0.22,3.1 c -0.72,1.41 -1.48,2.78 -2.28,4.13 c -1.43,0.32 -2.81,0.8 -4.13,1.46 c -1.52,0.06 -3.04,0.22 -4.55,0.48 c -3.77,0.02 -6.34,-1.34 -9.86,-2.21 c 0.19,-0.85 -3.34,-2.22 -3.8,-3.25 c -2.36,-2.99 -4.73,-5.97 -7.11,-8.95 c -0.23,-0.25 -0.51,-0.37 -0.85,-0.36 c -0.05,-0.44 -0.09,-0.87 -0.14,-1.3 c 0.37,-1.54 2.36,-1.11 3.41,-0.69 c 5.61,4.04 16.92,10.96 23.66,6.84 Z M 141.7,162.92 c -0.69,0.48 -0.91,1.14 -0.66,2 c -5.8,0.21 -11.59,0.47 -17.39,0.76 c -1.46,-0.8 -3.01,-0.97 -4.62,-0.53 c 1.11,-1.77 2.21,-3.55 3.29,-5.34 c 0.39,-0.47 0.44,-0.94 0.15,-1.43 c -0.66,0.67 -1.4,1.21 -2.22,1.64 c -1.23,-2.41 1.29,-3.29 0.19,-5.3 c 0.72,-0.85 1.59,-1.57 2.61,-2.18 c 1.57,-0.79 3.22,-1.12 4.94,-1.01 c 1.77,-0.94 3.56,-1.01 5.37,-0.22 c 3.63,1.93 9.1,7.09 8.34,11.61 Z"/>
<path fill="#f5c518" stroke="#f5c518" stroke-width="0.5" d="M 42.15,47.77 c 0.6,0.07 1.1,0.32 1.5,0.73 c -0.72,1.58 -0.85,3.2 -0.39,4.86 c 0.38,0.87 1.23,2.01 2.04,0.78 c 0.71,0.99 1.65,1.67 2.82,2.03 c 0.5,0.44 1.02,0.87 1.55,1.29 c -1.72,1.79 -4.6,4.9 -5.36,7.25 c 0.37,1.03 0.91,1.99 1.62,2.88 c 0.58,0.66 -0.09,3.51 1.2,3.26 c 1.45,3.01 4.02,-1.61 6.19,-0.76 c 0.41,1.53 0.93,3.04 1.55,4.53 c 2.15,4.25 5.54,6.91 10.17,7.98 c 1.69,0 3.36,-0.04 5,-0.15 c 1.74,3.15 3.88,6.01 6.42,8.57 c 0.16,0.92 0.76,3.06 -0.08,3.7 c -1.65,0.06 -3.28,-0.1 -4.89,-0.47 c -6.88,1.52 -11.66,-2.07 -18.5,2.28 c -0.6,0.25 -1.16,0.19 -1.67,-0.19 c 0.22,-1.28 0.53,-2.56 0.91,-3.83 c 0.45,-4.87 0.01,-7.12 -1.76,-11.48 c -0.83,-0.53 -1.62,-1.1 -2.37,-1.71 c -0.74,-4.33 -2.17,-6.87 -6.41,-8.53 c -2.99,-2.89 -0.35,-7.71 -0.45,-11.24 c -0.49,-2.87 -1.15,-5.7 -1.99,-8.48 c 1.77,0.38 2.04,-2.26 2.9,-3.3 Z"/>
<path fill="#f5c518" stroke="#f5c518" stroke-width="0.5" d="M 70.92,14.27 c 0,0.3 -0.09,0.58 -0.26,0.84 c -1.45,1.53 -2.85,3.09 -4.19,4.69 c -0.15,-0.09 -0.3,-0.18 -0.44,-0.26 c -0.47,-2.68 0.43,-4.61 -2.65,-1.71 c -2.07,2.5 -3.15,5.38 -3.23,8.66 c -1.64,0.71 -3.26,1.52 -4.86,2.43 c -1.81,1.47 -1.64,3.64 1.23,2.46 c 0.25,0.19 0.32,0.44 0.22,0.77 c -0.98,1.29 -5.33,8.4 -3.22,9.51 c 2.39,-1.42 1.61,2.07 2.02,3.33 c 0.32,0.85 0.83,1.58 1.52,2.18 c -0.28,0.55 -0.73,0.73 -1.35,0.54 c -1.66,-0.67 -3.38,-1.12 -5.16,-1.36 c -0.57,0.24 -1.1,0.57 -1.57,0.97 c -0.45,0.01 -0.8,0.2 -1.06,0.57 c -3.27,0.38 -4.42,3.58 -2.62,6.25 c -0.81,1.23 -1.66,0.09 -2.04,-0.78 c -0.46,-1.66 -0.33,-3.28 0.39,-4.86 c -0.4,-0.41 -0.9,-0.66 -1.5,-0.73 c 0.49,-0.42 0.97,-0.84 1.44,-1.27 c -0.18,-0.53 -0.14,-1.03 0.13,-1.49 c 1.06,-0.09 2.04,-0.39 2.96,-0.9 c -0.05,-0.94 -0.11,-1.84 -0.2,-2.72 c 0.86,0.68 1.7,0.7 2.51,0.06 c 0.59,-1.31 0.44,-2.51 -0.45,-3.58 c -0.87,-0.11 -1.74,-0.24 -2.61,-0.37 c -2.34,-3.21 -5.29,-0.11 -4.91,-5.94 c -1.46,-2.04 -0.47,-2.51 0.61,-4.27 c 0.12,-1.94 0.62,-3.77 1.5,-5.5 c 0.89,-0.45 1.75,-0.93 2.58,-1.46 c 0.11,-1.17 0.45,-2.26 1.01,-3.27 c 1.21,-0.15 2.42,-0.23 3.64,-0.24 c 0.49,-0.48 0.92,-1 1.3,-1.57 c 1.74,-1.01 4.01,0.22 5.21,-1.75 c 1.33,-0.25 2.58,-0.74 3.74,-1.45 c 1.73,0.44 3.41,1.04 5.05,1.79 c 1.76,0.07 3.51,0.21 5.26,0.43 Z"/>
<path fill="#f5c518" stroke="#f5c518" stroke-width="0.5" d="M 35.01,130.28 c 2.76,0.86 5.58,1.22 8.45,1.09 c 1.65,0.55 3.34,0.88 5.08,0.97 c 2.97,-0.17 5.89,-0.58 8.77,-1.25 c 0.19,0.15 0.38,0.31 0.58,0.47 c 1.65,6.04 4.9,11.75 7.65,17.36 c 0.12,1.36 -0.04,2.7 -0.47,4.01 c -1.08,-0.78 -2.25,-1.38 -3.51,-1.78 c -1.56,-4.27 -2.49,-2.05 -4.38,0.21 c -1.68,-0.41 -2.54,2.97 -4.12,1.05 c 0.62,-1.11 1.26,-2.22 1.93,-3.34 c 0.54,0.07 2.9,-0.3 1.65,-1.22 c -0.82,0.04 -1.37,0.45 -1.65,1.22 c -2.33,0.21 -2.38,-0.15 -3.69,1.86 c -1.01,0.18 -1.45,-0.25 -1.33,-1.27 c 0.58,-0.57 0.94,-1.23 1.1,-1.98 c -0.34,-0.3 -0.71,-0.37 -1.13,-0.2 c -1.29,0.58 -2.45,1.34 -3.47,2.26 c -0.55,-0.5 -0.65,-1.1 -0.3,-1.8 c 0.61,-0.4 0.82,-0.98 0.62,-1.73 c 0.93,0.09 1.72,-0.18 2.38,-0.81 c 0.01,-2.23 -2.75,-1.78 -2.38,0.81 c -3.84,0.75 -1.33,-2.16 -4.21,-2.59 c -1.61,0.23 -1.83,2.17 -3.53,1.52 c 0.1,-1.63 -0.63,-2.3 -2.18,-2 c -0.54,-1.66 0.25,-2.52 1.26,-3.64 c 0.04,-0.82 -0.22,-1.54 -0.78,-2.16 c -0.31,-3.39 -0.24,-2.17 -2.43,-4.02 c -0.3,-1.02 -0.27,-2.03 0.09,-3.04 Z"/>
<path fill="#f5c518" stroke="#f5c518" stroke-width="0.5" d="M 14.43,100.93 c 0.4,1.28 0.92,2.51 1.56,3.68 c 0.64,3.57 0.14,5.28 2.46,8.38 c 0.56,2.8 1.87,5.19 3.92,7.17 c 1.22,1.64 3.79,2.62 4.32,4.61 c -3.57,0.11 -7.69,3.01 -11.08,2.53 c -1.95,0.91 -1.77,2.06 -4.12,1.08 c -0.62,0.2 -1.25,0.35 -1.89,0.46 c -0.14,-0.57 -0.17,-1.18 -0.09,-1.81 c -1.38,-1.88 -1.86,0.72 -3.56,-0.71 c 0.11,-0.91 0.36,-1.77 0.75,-2.59 c -0.37,-0.9 -4.21,-2.6 -3.25,-3.69 c 0.84,-0.68 1.44,-1.51 1.79,-2.5 c -1.66,-4.2 -3.59,-1.59 0.82,-4.76 c 0.9,0.35 1.73,0.81 2.51,1.38 c 1.96,0.6 1.83,-2.52 2.08,-3.68 c -0.34,-0.91 -0.47,-1.85 -0.37,-2.81 c 1.3,-1.05 2.3,-1.53 1.5,-3.48 c 0.8,-1.15 1.68,-2.24 2.65,-3.26 Z"/>
<path fill="#f5f5f4" stroke="#f5f5f4" stroke-width="0.5" d="M 119.18,62.13 c -0.78,2.19 -0.06,2.97 -2.74,3.62 c -1.69,-0.11 -3.18,0.38 -4.45,1.47 c -0.6,-0.54 -1.27,-0.96 -2.01,-1.26 c -0.11,-1.06 1.56,-0.91 2.19,-1.37 c 1.75,-1.65 2.42,-3.67 2.03,-6.05 c -0.58,-3.3 -2.43,-4.39 -5.54,-3.27 c -0.27,-0.05 -0.55,-0.11 -0.82,-0.17 c 1.5,-3.83 4.08,-4.88 7.73,-3.15 c 3.61,2.34 3.09,6.47 3.61,10.18 Z M 99.84,79.73 c 3.86,0.39 7.72,0.55 11.59,0.47 c 0.81,1.41 -2.22,2.63 -3.04,3.33 c 0.5,0.82 0.6,1.7 0.3,2.62 c -1.45,0.54 -2.88,1.14 -4.3,1.81 c -1.33,0.17 -2.64,0.42 -3.94,0.74 c -5.05,-0.41 -10.04,-1.12 -12.85,-5.86 c -0.42,-0.55 -0.45,-1.09 -0.1,-1.62 c 1.15,0.85 2.38,1.57 3.7,2.16 c 0.75,0.49 2.2,0.48 0.72,-0.68 c -0.74,-0.29 -1.46,-0.6 -2.18,-0.93 c -1.24,-1.13 -2.43,-2.32 -3.56,-3.56 c -0.87,-1.16 -1.58,-3.2 0.22,-3.85 c 3.53,2.95 9,4.43 13.44,5.37 Z"/>
<path fill="#ee9d3d" stroke="#ee9d3d" stroke-width="0.5" d="M 71,126.95 c -0.26,2.98 -5.53,9.86 -8.6,6.14 c -2.05,-1.88 -1.92,-3.51 0.37,-4.91 c 0.16,-0.36 0.08,-0.64 -0.26,-0.84 c -4.56,1.6 -9.26,2.57 -14.08,2.93 c -3.02,-0.92 -3.18,-1.77 -6.98,-0.89 c -3.84,-0.02 -6.24,-2.12 -9.44,-3.83 c -0.63,-0.49 -1.4,-0.85 -0.54,-1.54 c 1.3,0.04 2.59,-0.03 3.88,-0.21 c 1.96,-0.6 3.91,-1.25 5.85,-1.94 c 1.99,0.59 3.81,1.53 5.44,2.81 c 2.64,-0.04 6.22,0.56 8.71,-0.06 c 1.86,-2.58 4.65,-2.71 7.62,-3.09 c 0.82,-0.43 1.65,-0.84 2.49,-1.22 c 1.73,2.29 3.58,4.51 5.54,6.65 Z M 63.24,124.78 c 1.48,0.88 2.87,1.87 4.18,2.97 c 1.72,-2.39 -3.73,-5.55 -4.18,-2.97 Z"/>
<path fill="#f3c272" stroke="#f3c272" stroke-width="0.5" d="M 69.99,68.17 c -0.78,0.9 -1.53,1.82 -2.26,2.75 c -1.06,-1.3 -2.13,-2.62 -3.21,-3.95 c -1.33,-1.18 -5.63,-3.55 -6.2,-0.49 c 0.88,0.22 1.81,0.23 2.77,0.02 c 4.6,1.1 -2.51,4.88 1.67,8.17 c 1.18,0.93 2.49,1.22 3.92,0.87 c -1.35,-0.49 -2.58,-1.15 -3.7,-2.01 c -0.17,-1.4 0.32,-2.49 1.48,-3.28 c 0.78,0.5 1.54,1.03 2.29,1.59 c 0.43,0.06 0.85,0.03 1.27,-0.08 c 2.35,1.62 1.86,1.8 0.25,3.74 c 0.59,0.86 1.2,1.72 1.84,2.57 c -0.18,3.15 -4.46,2.32 -6.49,1.79 c -5.38,-2.35 -8.17,-6.46 -8.35,-12.36 c -0.21,-8.29 10.73,-8.85 13.33,-0.63 c 0.37,0.53 0.83,0.97 1.39,1.3 Z"/>
<path fill="#e09d02" stroke="#e09d02" stroke-width="0.5" d="M 68.85,134.04 c 1.84,1.93 0.01,2.74 0.65,4.87 c 1.71,4.2 2.23,8.83 4.37,12.84 c 0.16,0.53 0.12,1.04 -0.12,1.54 c -0.79,0.41 -1.58,0.81 -2.37,1.22 c 0.92,2.29 4.4,2.68 6.24,4.09 c -0.22,0.3 -0.53,0.44 -0.94,0.4 c -3.24,-0.48 -6.47,-0.84 -9.71,-1.08 c 0.46,-3.11 0.78,-6.18 0.97,-9.23 c -2.13,-3.95 -4.02,-8.02 -5.66,-12.2 c 0.09,-0.13 0.17,-0.25 0.25,-0.37 c 3.15,0.31 3.96,-0.66 6.32,-2.08 Z"/>
<path fill="#f7f7f6" d="M 96.9,60.14 c 0.38,2.4 -0.37,4.4 -2.26,5.97 c -1.13,1.67 -2.58,2.07 -4.36,1.21 c -1.78,-0.35 -3.52,-0.79 -5.21,-1.34 c -0.09,-0.77 -0.46,-1.34 -1.09,-1.71 c -2.32,-4.92 -0.85,-11.63 5.09,-12.81 c 3.07,0.13 5.22,1.63 6.47,4.49 c 0.4,1.42 0.85,2.82 1.36,4.19 Z M 84.97,59.97 c 0.02,1.54 0.42,2.98 1.21,4.31 c 4.75,5.18 9.8,-3.59 3.99,-8.82 c -3.51,-1.37 -4.54,1.8 -5.2,4.51 Z"/>
<path fill="#fedf66" d="M 146.05,44.25 c 0.98,0.68 2.06,1.21 3.25,1.61 c 0.02,0.68 -0.22,2.13 0.99,1.77 c 1.03,-0.81 2.11,-1.57 3.24,-2.26 c 1.31,1.8 -2.12,3.52 -3.1,4.6 c 0.07,1.18 0.7,1.77 1.89,1.79 c 0.45,-0.57 0.8,-1.21 1.06,-1.9 c 1.28,-0.74 2.33,-1.72 3.16,-2.93 c 0.63,-0.13 3.07,-1.48 2.38,0.38 c -1.13,1.27 -2.08,2.66 -2.85,4.19 c -0.49,0.54 -1.04,1.01 -1.66,1.4 c -0.47,1.05 -0.43,2.95 -2.04,2.83 c -1.33,-0.7 -2.6,-1.52 -3.8,-2.45 c -0.53,1.06 -0.99,2.15 -1.38,3.28 c -0.9,0.36 -1.33,0.04 -1.3,-0.96 c 0.68,-1.48 1.18,-2.97 1.51,-4.48 c -2.62,-1.71 -1.93,0 -4.07,0.92 c -1.89,0.21 -0.71,-1.59 0.05,-2.07 c 0.82,-0.53 1.62,-1.07 2.4,-1.61 c -0.59,-0.63 -1.18,-1.28 -1.78,-1.94 c -0.31,-1.35 -0.68,-2.66 -1.1,-3.95 c 0.37,-0.45 0.79,-0.52 1.28,-0.19 c 0.43,0.85 1.05,1.51 1.87,1.97 Z"/>
<path fill="#f5c518" stroke="#f5c518" stroke-width="0.5" d="M 152.95,115.26 c 1.95,-0.52 3.93,-0.64 5.95,-0.35 c 2.36,1.7 6.24,3.28 7.72,5.75 c 0.25,1.94 -1.95,5.29 -3.55,6.43 c -1.64,-0.35 -8.57,-9.95 -10.12,-11.83 Z"/>
<path fill="#db872d" d="M 16.09,92.82 c 1.18,0.76 1.98,1.81 2.41,3.15 c -0.21,1.19 -0.41,2.39 -0.59,3.61 c -0.35,2.15 1.44,3.09 2.29,4.76 c 1.11,2.68 1.26,5.34 3.35,7.54 c 6.12,3.36 12.73,0.37 18.16,-2.85 c 0.43,-0.16 0.87,-0.22 1.33,-0.18 c -0.15,4.86 -6.73,5.67 -10.37,5.34 c -1.73,1.16 -1.77,1.81 -4.2,1.57 c -11.37,-2.01 -10.77,-14.18 -12.38,-22.94 Z"/>
<path fill="#e3953a" d="M 106.88,105.16 c -6.74,4.12 -18.05,-2.8 -23.66,-6.84 c -1.05,-0.42 -3.04,-0.85 -3.41,0.69 c -0.76,-0.15 -1.05,-0.62 -0.88,-1.42 c 0.76,-0.94 0.92,-1.97 0.49,-3.1 c 0.12,-0.49 0.45,-0.69 0.97,-0.6 c 2.77,2.02 5.64,3.89 8.62,5.63 c 4.6,2.99 11.05,5.15 16.49,3.7 c 0.58,0.55 1.04,1.19 1.38,1.94 Z"/>
<path fill="#e9913d" d="M 44.24,97.06 c 0.3,0.08 0.51,0.27 0.63,0.56 c 0.88,4.74 -1.05,6.76 -5.79,6.07 c 1.42,-1.29 2.86,-2.55 4.35,-3.77 c 0.46,-0.89 0.73,-1.85 0.81,-2.86 Z M 163.32,133.05 c 1.14,2.37 -0.1,4.32 -1.42,6.24 c -1.58,5.58 -4.78,9.23 -8.99,13.04 c -2.06,1.96 -3.34,1.52 -3.84,-1.29 c 3.39,0.1 10.62,-9.63 11.57,-12.99 c 1.35,-1.52 3.18,-2.6 2.68,-5 Z"/>
<path fill="#d0342c" stroke="#d0342c" stroke-width="0.5" d="M 48.98,47.32 c 0.08,0.29 0.28,0.46 0.6,0.5 c 2.02,0.12 3.99,0.51 5.89,1.19 c 1.88,1.5 -0.45,2.32 -1.14,3.51 c 1.67,3.44 -2.22,2.78 -4.35,2.75 c -2.38,-1.47 -3.3,-1.69 -2.99,-4.89 c 0.31,-0.83 0.62,-1.66 0.93,-2.49 c 0.26,-0.37 0.61,-0.56 1.06,-0.57 Z"/>
<path fill="#f0bb69" d="M 94.07,47.87 c 0.47,1.58 1,1.72 -0.31,3.12 c -3.51,-2.21 -6.76,-1.89 -9.77,0.95 c -0.2,-0.75 -0.46,-1.48 -0.78,-2.17 c 0.3,-1.27 2.57,-2.31 1.81,-3.69 c 1.43,-0.59 2.91,-0.74 4.42,-0.45 c 1.02,0.53 4.62,0.59 4.63,2.24 Z"/>
<path fill="#d0342c" stroke="#d0342c" stroke-width="0.5" d="M 60.63,55.04 c -0.36,-2.71 2.41,-5.09 3.7,-7.3 c 0.28,-0.43 0.35,-0.87 0.2,-1.35 c -1.44,1.14 -2.63,2.49 -3.59,4.05 c -0.62,0.42 -1.19,0.34 -1.72,-0.24 c 3.33,-12.73 22.13,-22.33 34.4,-23.79 c 8.28,-0.88 20.14,-0.89 27.28,4.13 c 1.74,1.96 3.79,2.95 2.43,5.91 c 1.33,1.45 2.2,3.13 2.63,5.04 c 0.34,1.14 0.49,2.27 0.44,3.39 c -0.51,0.04 -0.95,-0.14 -1.31,-0.52 c -1.54,-3.45 -5.63,-4.57 -8.76,-6.11 c -10.3,-0.97 -20.46,-0.18 -30.72,1.03 c -8.6,5.22 -17.05,7.93 -23.49,16.32 c -0.62,0.17 -1.12,-0.02 -1.49,-0.56 Z"/>
<path fill="#fde080" d="M 162.09,97.29 c -0.39,0.38 -0.67,0.83 -0.82,1.36 c -0.72,3.44 3.6,-2.06 4,1.14 c -0.36,1.45 -1.25,1.99 -2.66,1.63 c -0.44,1.51 -1.08,1.49 -2.35,2.22 c -0.42,3.83 -2.28,1.97 -2.74,-0.35 c -0.37,0.71 -0.89,1.28 -1.55,1.72 c 0.98,-2.14 -0.74,-2.56 -0.68,-4.53 c 0.18,-0.44 0.5,-0.6 0.96,-0.46 c 0.38,0.75 0.82,1.43 1.34,2.07 c 1.86,-1.87 -1.05,-5.51 4.5,-4.8 Z"/>
<path fill="#fde78f" d="M 155.97,105.01 c 0.47,0.7 1.06,1.3 1.76,1.8 c 0.63,1.82 -0.05,2.66 -2.05,2.53 c -0.43,0.81 -1.01,1.48 -1.75,2.02 c -0.71,-0.63 -1.27,-1.38 -1.67,-2.26 c -0.67,-0.19 -1.33,-0.2 -2,-0.04 c -0.07,-1.89 -2.87,-1.85 -1.74,-3.69 c 1.08,0.87 2.13,1.77 3.13,2.7 c 1.93,-1.26 -1.99,-2.5 -0.2,-4.79 c 0.67,0.57 1.35,1.13 2.04,1.66 c 0.6,-3.08 1.1,-1.85 1.97,0.07 c 0.17,0 0.34,0 0.51,0 Z"/>
<path fill="#f5de45" d="M 25.89,64.23 c 0.76,1.68 0.64,5.93 -1.52,6.52 c -1.44,0.41 -2.88,0.82 -4.33,1.22 c -0.21,-0.74 -2.49,-1.75 -1.54,-2.49 c 2.24,1.23 1.68,-1.96 2.01,-3.11 c 0.6,0.55 1.28,0.99 2.03,1.29 c 0.9,-0.88 1.18,-1.92 0.84,-3.12 c 0.78,-0.37 1.62,-0.48 2.51,-0.31 Z"/>
<path fill="#fde066" d="M 33.85,129.89 c 0.39,0.13 0.78,0.26 1.16,0.39 c -0.36,1.01 -0.39,2.02 -0.09,3.04 c 2.19,1.85 2.12,0.63 2.43,4.02 c 0.56,0.62 0.82,1.34 0.78,2.16 c -1.01,1.12 -1.8,1.98 -1.26,3.64 c 0.03,1.03 -0.67,2.93 -1.78,1.3 c 0.09,-0.78 0.44,-1.46 1.04,-2.03 c 0.8,-5.88 -3.48,0.34 -2.92,-2.69 c 0.29,-0.72 0.51,-1.45 0.66,-2.19 c -1.02,-1.41 -0.96,-2.76 0.17,-4.06 c -0.03,-1.2 -0.09,-2.39 -0.19,-3.58 Z"/>
<path fill="#feebab" d="M 149.3,45.86 c -1.19,-0.4 -2.27,-0.93 -3.25,-1.61 c -0.13,-1.3 -0.48,-2.53 -1.06,-3.69 c 0.84,-0.71 1.2,-1.58 1.09,-2.62 c 0.87,-0.56 1.69,-1.17 2.47,-1.86 c 1,-0.05 1.52,0.4 1.53,1.38 c -1.73,1.24 -2.91,0.84 -1.01,3.12 c 0.38,2.61 0.01,1.9 2.47,2.22 c 1.96,1.96 -0.77,2.72 -2.24,3.06 Z"/>
<path fill="#f5c518" d="M 11.78,104.19 c 0.8,1.95 -0.2,2.43 -1.5,3.48 c -0.1,0.96 0.03,1.9 0.37,2.81 c -0.25,1.16 -0.12,4.28 -2.08,3.68 c -0.78,-0.57 -1.61,-1.03 -2.51,-1.38 c -0.78,-0.62 -1.38,-1.38 -1.78,-2.28 c 1.44,-0.34 2.81,-0.89 4.11,-1.67 c 0.41,-0.3 0.54,-0.69 0.4,-1.18 c -1.01,-2.12 -0.41,-2.8 1.82,-2.04 c 0.46,-0.41 0.85,-0.88 1.17,-1.42 Z"/>
<path fill="#f9e37f" d="M 131.63,25.95 c 0.99,0.99 1.35,2.17 1.08,3.55 c 0.83,2.11 1.43,4.27 1.78,6.47 c 0.36,-0.52 0.7,-1.05 1.02,-1.58 c 2.9,0.84 0.39,3.82 -1.28,4.41 c -0.03,-1.56 -2.21,-0.72 -2.79,0.05 c 0.39,-2.12 0.76,-4.27 1.1,-6.44 c -0.48,-1.21 -0.71,-2.48 -0.69,-3.8 c -0.49,-0.39 -1.07,-0.61 -1.71,-0.63 c 0.3,-0.83 0.8,-1.5 1.49,-2.03 Z"/>
<path fill="#fff8e0" d="M 174.17,61.39 c -0.24,1.6 0.02,1.03 1.43,1.43 c 0.47,1.43 -2.1,1.2 -2.81,2.03 c -2.18,-1.89 -2.98,0.36 -2.84,2.35 c -2.46,-1.98 -3.52,-1.41 -3.2,1.71 c -0.35,-0.13 -0.57,-0.37 -0.68,-0.73 c -0.22,-1.3 -1.01,-2.08 -2.36,-2.34 c 0.42,-1.38 2.39,-0.77 3.43,-1.28 c 1.27,-1.01 2.62,-1.85 4.06,-2.51 c 0.96,-0.39 1.95,-0.61 2.97,-0.66 Z"/>
<path fill="#f8dc7a" d="M 65.07,152.93 c 1.38,0.66 -0.4,2.31 -0.46,3.33 c -0.1,-0.11 -0.21,-0.22 -0.31,-0.33 c 0.27,-5.08 -3.27,3.36 -4.22,-2.32 c -1.64,-0.8 -2.29,-0.33 -2.9,-2.25 c 1.89,-2.26 2.82,-4.48 4.38,-0.21 c 1.26,0.4 2.43,1 3.51,1.78 Z"/>
<path fill="#feeaa4" d="M 163.02,96.03 c -0.15,1.73 0.62,2.33 2.28,1.81 c 0.58,-0.62 1.29,-0.92 2.11,-0.92 c 0.37,0.64 0.7,1.29 1.01,1.95 c 0.84,-0.76 1.78,-0.94 2.82,-0.55 c 1.84,2.01 -1.35,1.78 -2.4,2.19 c -0.63,0.8 -1.42,1.33 -2.37,1.59 c -0.44,-0.78 -0.84,-1.55 -1.2,-2.31 c -0.4,-3.2 -4.72,2.3 -4,-1.14 c 0.15,-0.53 0.43,-0.98 0.82,-1.36 c 0.16,-0.53 0.47,-0.95 0.93,-1.26 Z"/>
<path fill="#fef0a1" d="M 153.75,64.31 c 0.36,0.31 0.72,0.6 1.1,0.87 c 0.31,2.55 -0.87,1.08 -2.21,1.05 c -2.42,1.29 -1.94,2.76 -5.16,2.53 c -0.68,0.37 -1.25,0.88 -1.71,1.53 c -1.39,0.58 -1.74,0.18 -1.04,-1.21 c 0.9,-0.4 1.71,-0.94 2.43,-1.6 c 0.14,-0.67 0.24,-1.35 0.28,-2.02 c 0.51,0.52 1.13,0.78 1.86,0.8 c 1.5,-0.59 2.99,-1.24 4.45,-1.95 Z"/>
<path fill="#fddf76" d="M 169.95,67.2 c 0.68,1.99 2.75,1.72 2.9,4.25 c 0.83,0.65 1.57,1.38 2.22,2.19 c 0.03,0.95 -0.43,1.32 -1.38,1.12 c -0.73,-0.51 -1.76,-2.97 -2.75,-1.29 c -0.52,2.47 2.56,2.38 3.71,4 c -0.76,1.22 -3.59,0.53 -4.8,0.49 c -1.98,0.93 -2.14,-1.21 -1.86,-2.59 c 0.74,-0.3 1.48,-0.62 2.23,-0.94 c 0.04,-0.33 0.08,-0.67 0.12,-1 c -0.41,-0.92 -1.04,-1.67 -1.9,-2.23 c -0.5,-0.68 -0.55,-2.38 -1.69,-2.29 c -0.32,-3.12 0.74,-3.69 3.2,-1.71 Z"/>
<path fill="#ee9d36" d="M 132.94,128.95 c 3.04,1.06 4.69,3.58 8,4.11 c -2.02,4.43 -5.88,0.57 -8.34,-1.03 c -0.49,-0.66 -0.61,-1.39 -0.35,-2.18 c 0.24,-0.29 0.47,-0.59 0.69,-0.9 Z"/>
<path fill="#fbf3be" d="M 150.26,109.06 c 0.67,-0.16 1.33,-0.15 2,0.04 c 0.4,0.88 0.96,1.63 1.67,2.26 c -1.99,1.93 1.85,3.38 3.5,2.66 c 0.2,-0.52 0.16,-1.04 -0.12,-1.57 c 0.55,-0.77 1.13,-0.76 1.73,0.02 c 0.17,0.82 0.13,1.63 -0.14,2.44 c -2.02,-0.29 -4,-0.17 -5.95,0.35 c -0.35,-0.07 -0.69,-0.14 -1.03,-0.21 c -0.01,-0.62 -0.3,-1.06 -0.87,-1.3 c 2.65,-1.78 -0.08,-3.84 -2.13,-1.9 c -0.34,0.03 -0.68,0.07 -1.02,0.11 c 0.7,-1.04 1.49,-2 2.36,-2.9 Z"/>
<path fill="#db9146" d="M 110.03,71.25 c -0.04,1.59 -2.69,2.49 -3.72,3.32 c 0.05,0.3 0.21,0.52 0.47,0.66 c -0.83,0.63 -1.74,0.69 -2.71,0.2 c -0.77,-1.11 -3.61,-1.16 -2.95,-2.8 c 2.99,-0.38 5.96,-0.84 8.91,-1.38 Z"/>
<path fill="#ee9b35" d="M 44.19,85.92 c 2.36,1.79 2,6.36 -0.74,7.65 c -1.82,-0.23 -3.65,-0.48 -5.48,-0.72 c 4.17,-1.06 6.01,-2.19 6.22,-6.93 Z"/>
<path fill="#fdd95d" d="M 171.2,62.05 c -1.44,0.66 -2.79,1.5 -4.06,2.51 c -1.04,0.51 -3.01,-0.1 -3.43,1.28 c -0.61,0.42 -1.01,0.98 -1.2,1.71 c -2.2,-1.1 0.67,-2.29 -2.43,-2.76 c 1.24,-0.32 2.44,-0.79 3.59,-1.41 c 0.77,0.02 1.53,0.06 2.3,0.1 c 0.87,-0.83 4.39,-2.93 5.23,-1.43 Z"/>
<path fill="#e19530" d="M 43.96,75.98 c 1.71,0.63 1.46,6.4 -1.47,6.32 c -0.87,-0.34 -1.71,-0.76 -2.51,-1.26 c 0.59,-0.96 1.25,-1.87 1.99,-2.72 c 0.15,-0.66 0.32,-1.31 0.54,-1.93 c 0.63,0.28 1.12,0.14 1.45,-0.41 Z"/>
<path fill="#efb354" d="M 112.75,105.91 c -3.37,1.34 -3.6,2.27 -4.06,-2.12 c -0.11,-0.33 -0.33,-0.56 -0.65,-0.68 c -0.15,-1.31 0.34,-2.26 1.47,-2.83 c 1.61,0.51 2.9,4.07 3.24,5.63 Z"/>
<path fill="#c39105" d="M 129.73,131.96 c -0.74,2.97 -1.21,5.93 -1.41,8.87 c -0.1,-1.43 -0.18,-2.87 -0.23,-4.31 c -0.75,-0.8 -1.4,0.6 -2.44,0.27 c -1.59,-0.84 1.71,-3.58 2.12,-4.44 c 0.64,-0.19 1.29,-0.32 1.96,-0.39 Z"/>
<path fill="#eba858" d="M 76.79,86.83 c 1.76,-0.27 5.21,2.12 6.34,3.5 c 1.34,0.86 2.82,0.77 2.95,2.75 c -3.57,0.29 -5.12,-2.06 -7.75,-3.93 c -0.7,-0.65 -1.22,-1.42 -1.54,-2.32 Z"/>
<path fill="#f1d66c" d="M 120.44,154.72 c 1.1,2.01 -1.42,2.89 -0.19,5.3 c -0.4,1.31 -1.26,1.9 -2.58,1.79 c -1.6,-2.42 0.45,-5.88 2.77,-7.09 Z"/>
<path fill="#fdefb9" d="M 46.79,146.21 c 0.2,0.75 -0.01,1.33 -0.62,1.73 c -0.38,-2.23 -2.1,-0.88 -2.87,0.18 c -1.45,0.54 -2.29,0.02 -2.51,-1.55 c -0.67,-0.41 -1.25,-0.89 -1.74,-1.43 c 1.7,0.65 1.92,-1.29 3.53,-1.52 c 2.88,0.43 0.37,3.34 4.21,2.59 Z"/>
<path fill="#171310" stroke="#171310" stroke-width="0.5" d="M 131.63,25.95 c -0.69,0.53 -1.19,1.2 -1.49,2.03 c -2.02,1.32 -0.03,3.39 -0.41,5.32 c -0.68,1.22 -1.47,2.36 -2.38,3.43 c 0.53,2.86 0.98,5.72 1.36,8.6 c -2.08,3.73 -1.95,5.89 -2.34,10 c 0.86,0.75 1.83,1.36 2.9,1.83 c 4.29,6.27 2.97,12.55 -1.33,18.35 c -0.66,8.71 -5.02,14.14 -11.47,19.55 c -0.42,0.36 -0.56,0.8 -0.42,1.33 c 1.47,0.6 2.94,1.21 4.4,1.84 c 9.06,-0.85 16.19,1.59 21.91,8.82 c 1.93,3.56 1.48,3.57 5.54,4.91 c 0.34,-0.04 0.68,-0.08 1.02,-0.11 c 0.18,1.27 0.89,1.9 2.13,1.9 c 0.06,0.59 0.35,1.02 0.87,1.3 c 0.34,0.07 0.68,0.14 1.03,0.21 c 1.55,1.88 8.48,11.48 10.12,11.83 c 0.01,0.32 0.02,0.64 0.02,0.96 c 0.03,0.48 0.25,0.82 0.67,1.04 c 4.54,6.34 0.19,10.36 -2.09,16.25 c -2.57,4.35 -5.97,7.91 -10.21,10.68 c -0.59,0.86 -0.97,1.81 -1.13,2.85 c -1.71,1.66 -3.59,3.12 -5.65,4.36 c -0.58,1.14 -1.49,1.78 -2.73,1.9 c -0.09,-0.73 -0.17,-1.47 -0.25,-2.21 c 0.76,-4.52 -4.71,-9.68 -8.34,-11.61 c -1.81,-0.79 -3.6,-0.72 -5.37,0.22 c -1.72,-0.11 -3.37,0.22 -4.94,1.01 c -1.02,0.61 -1.89,1.33 -2.61,2.18 c -2.32,1.21 -4.37,4.67 -2.77,7.09 c 1.32,0.11 2.18,-0.48 2.58,-1.79 c 0.82,-0.43 1.56,-0.97 2.22,-1.64 c 0.29,0.49 0.24,0.96 -0.15,1.43 c -1.08,1.79 -2.18,3.57 -3.29,5.34 c -4.18,0.36 -8.37,0.72 -12.56,1.11 c -0.65,-0.04 -1.15,0.21 -1.51,0.74 c -5.3,0 -10.61,0 -15.92,0 c -0.33,-1.16 -7.19,-1.15 -8.54,-1.85 c -4.65,-0.02 -9.29,-0.1 -13.93,-0.23 c -1.15,-1.46 0.4,-2.94 -1.68,-4.73 c -0.06,-1.31 -0.16,-2.62 -0.28,-3.93 c 0.06,-1.02 1.84,-2.67 0.46,-3.33 c 0.43,-1.31 0.59,-2.65 0.47,-4.01 c -2.75,-5.61 -6,-11.32 -7.65,-17.36 c -0.2,-0.16 -0.39,-0.32 -0.58,-0.47 c -2.88,0.67 -5.8,1.08 -8.77,1.25 c -1.74,-0.09 -3.43,-0.42 -5.08,-0.97 c -2.87,0.13 -5.69,-0.23 -8.45,-1.09 c -0.38,-0.13 -0.77,-0.26 -1.16,-0.39 c -0.18,-0.44 -0.51,-0.66 -0.99,-0.68 c -0.11,-0.5 -0.4,-0.83 -0.88,-0.99 c -0.68,-0.37 -1.33,-0.79 -1.93,-1.29 c -0.17,-0.57 -0.55,-0.85 -1.16,-0.84 c -0.05,-0.54 -0.33,-0.89 -0.84,-1.05 c -0.45,-0.09 -0.9,-0.18 -1.36,-0.27 c -0.53,-1.99 -3.1,-2.97 -4.32,-4.61 c -2.05,-1.98 -3.36,-4.37 -3.92,-7.17 c -2.32,-3.1 -1.82,-4.81 -2.46,-8.38 c -0.64,-1.17 -1.16,-2.4 -1.56,-3.68 c -0.39,-3.18 1,-3.47 -1.15,-6.65 c -1.05,-3.54 0.32,-6.63 1.38,-9.93 c -0.69,-5.24 -0.63,-8.53 4.33,-11.58 c 0.47,-0.12 0.81,-0.38 1.05,-0.8 c 1.45,-0.4 2.89,-0.81 4.33,-1.22 c 2.16,-0.59 2.28,-4.84 1.52,-6.52 c -0.8,-3.87 -1.34,-7.79 -1.6,-11.75 c 0.99,-4.8 3.9,-6.79 8.75,-5.97 c 3.08,0.47 4.27,2.42 6.21,4.56 c 0.84,2.78 1.5,5.61 1.99,8.48 c 0.1,3.53 -2.54,8.35 0.45,11.24 c 4.24,1.66 5.67,4.2 6.41,8.53 c 0.75,0.61 1.54,1.18 2.37,1.71 c 1.77,4.36 2.21,6.61 1.76,11.48 c -0.38,1.27 -0.69,2.55 -0.91,3.83 c 0.51,0.38 1.07,0.44 1.67,0.19 c 6.84,-4.35 11.62,-0.76 18.5,-2.28 c 1.61,0.37 3.24,0.53 4.89,0.47 c 0.84,-0.64 0.24,-2.78 0.08,-3.7 c -2.54,-2.56 -4.68,-5.42 -6.42,-8.57 c -1.64,0.11 -3.31,0.15 -5,0.15 c -4.63,-1.07 -8.02,-3.73 -10.17,-7.98 c -0.62,-1.49 -1.14,-3 -1.55,-4.53 c -2.17,-0.85 -4.74,3.77 -6.19,0.76 c 0.08,-0.69 0.23,-1.36 0.45,-2.02 c 1.21,1.17 2.46,1.16 3.75,-0.01 c 1.41,-2.29 2.73,-4.66 3.94,-7.1 c 0.48,-0.77 1.11,-1.41 1.87,-1.93 c 1.11,-0.17 2.07,-0.64 2.87,-1.42 c 0.16,-1.14 0.36,-2.25 0.62,-3.33 c 0.37,0.54 0.87,0.73 1.49,0.56 c 6.44,-8.39 14.89,-11.1 23.49,-16.32 c 10.26,-1.21 20.42,-2 30.72,-1.03 c 3.13,1.54 7.22,2.66 8.76,6.11 c 0.36,0.38 0.8,0.56 1.31,0.52 c 0.05,-1.12 -0.1,-2.25 -0.44,-3.39 c -0.43,-1.91 -1.3,-3.59 -2.63,-5.04 c 1.36,-2.96 -0.69,-3.95 -2.43,-5.91 c -7.14,-5.02 -19,-5.01 -27.28,-4.13 c -12.27,1.46 -31.07,11.06 -34.4,23.79 c -0.04,0.73 -0.36,1.23 -0.97,1.48 c -1.68,-1.18 -0.62,-2.39 -0.57,-4.04 c -0.09,-0.31 -0.3,-0.47 -0.62,-0.47 c -0.69,-0.6 -1.2,-1.33 -1.52,-2.18 c -0.41,-1.26 0.37,-4.75 -2.02,-3.33 c -2.11,-1.11 2.24,-8.22 3.22,-9.51 c 0.1,-0.33 0.03,-0.58 -0.22,-0.77 c -2.87,1.18 -3.04,-0.99 -1.23,-2.46 c 1.6,-0.91 3.22,-1.72 4.86,-2.43 c 0.08,-3.28 1.16,-6.16 3.23,-8.66 c 3.08,-2.9 2.18,-0.97 2.65,1.71 c 0.14,0.08 0.29,0.17 0.44,0.26 c 1.34,-1.6 2.74,-3.16 4.19,-4.69 c 0.17,-0.26 0.26,-0.54 0.26,-0.84 c 0.35,-0.08 0.69,-0.16 1.04,-0.24 c 0.57,-0.17 0.95,-0.54 1.12,-1.12 c 2.34,-1.7 4.87,-3.06 7.57,-4.1 c 2.33,-0.27 0.03,3.06 -0.24,3.8 c 0.74,1.04 3.3,-2.17 4.26,-2.33 c 1.49,-0.49 2.94,-1.1 4.33,-1.83 c 4.63,-1.19 9.15,-2.66 13.59,-4.39 c 1.13,0.13 2.11,-0.18 2.96,-0.93 c 2.19,0.87 1.11,4.72 0.53,6.36 c 0.12,0.16 0.24,0.33 0.36,0.49 c 6.77,-0.19 13.45,-1.06 20.04,-2.62 c 4.44,-0.32 -0.18,11.27 -1.23,13.11 c 1.57,1.49 6.96,-2.6 6.68,2.05 c -0.15,1.14 -0.25,2.28 -0.3,3.43 Z M 94.07,47.87 c -0.01,-1.65 -3.61,-1.71 -4.63,-2.24 c -1.51,-0.29 -2.99,-0.14 -4.42,0.45 c -0.79,0.33 -1.53,0.76 -2.2,1.29 c -0.9,0.48 -2.48,3.9 -3.05,1.24 c 0.08,-1.45 0.01,-2.86 -0.2,-4.21 c -1.27,1.09 -6.13,2.73 -6.52,4.18 c 0.18,1.97 0.42,3.94 0.72,5.91 c -0.26,4.14 -1.98,6.63 -0.48,11.02 c 0.08,1.86 -1.98,2.19 -3.3,2.66 c -0.56,-0.33 -1.02,-0.77 -1.39,-1.3 c -2.6,-8.22 -13.54,-7.66 -13.33,0.63 c 0.18,5.9 2.97,10.01 8.35,12.36 c 2.03,0.53 6.31,1.36 6.49,-1.79 c 2.75,0.65 3.1,7.65 6.68,8.76 c 0.32,0.9 0.84,1.67 1.54,2.32 c 2.63,1.87 4.18,4.22 7.75,3.93 c 3.82,5.62 16.86,7.17 22.95,4.37 c 8.31,-4.39 17.46,-13.99 16.66,-24.05 c -0.54,-3.74 -1.3,-7.43 -2.3,-11.08 c 0.37,-4.89 0.43,-9.78 0.18,-14.68 c -0.42,-1.4 -0.27,-3.85 -2.04,-4.25 c -0.22,1 -0.36,2.04 -0.43,3.11 c -1.18,1.17 -1.82,-0.78 -2.78,-1.26 c -2.21,-0.73 -4.43,-0.73 -6.65,0.01 c -0.97,0.86 -2.07,1.5 -3.29,1.92 c -1.91,0.02 -1.1,-3.61 -0.26,-4.52 c 0.23,-0.84 3.2,-2.88 1.19,-3.39 c -2.85,0.04 -14.31,-0.46 -16.19,1.3 c 0.82,0.79 1.68,1.54 2.58,2.26 c 0.49,0.86 0.91,1.74 1.28,2.66 c -0.06,1.83 -1.03,2.62 -2.91,2.39 Z M 26.61,54.07 c 0.44,5.51 3.02,9.88 2.38,15.39 c 0.32,0.56 0.8,0.77 1.44,0.62 c 2.33,-0.46 4.67,-0.56 7.03,-0.29 c 0.19,-0.13 0.38,-0.25 0.57,-0.37 c -0.1,-0.97 -0.19,-1.93 -0.29,-2.89 c 1.93,-5.95 1.44,-17.1 -6.44,-18.17 c -3.28,0.46 -4.84,2.36 -4.69,5.71 Z M 119.18,62.13 c -0.52,-3.71 0,-7.84 -3.61,-10.18 c -3.65,-1.73 -6.23,-0.68 -7.73,3.15 c -0.6,-0.68 -0.77,-1.48 -0.51,-2.4 c 1.57,-2.74 3.91,-3.85 7.02,-3.32 c 4.9,2.25 7.5,7.75 4.83,12.75 Z M 125.16,63.96 c 0.91,1.06 1.8,7.52 3.08,6.98 c 2.04,-2.52 2.24,-11.33 -0.86,-12.79 c -2.69,-1 -1.36,4.46 -2.22,5.81 Z M 17.05,86.01 c -0.74,0.49 -1.08,1.2 -1.03,2.11 c -0.27,1.75 -1.43,3.16 0.07,4.7 c 1.61,8.76 1.01,20.93 12.38,22.94 c 2.43,0.24 2.47,-0.41 4.2,-1.57 c 3.64,0.33 10.22,-0.48 10.37,-5.34 c 1.79,-5.95 -11.13,-1.58 -12.75,-3.44 c 0.22,-0.64 0.66,-1 1.33,-1.1 c 2.51,0.01 4.99,-0.19 7.46,-0.62 c 4.74,0.69 6.67,-1.33 5.79,-6.07 c -0.12,-0.29 -0.33,-0.48 -0.63,-0.56 c -0.41,-1.28 -1.3,-1.91 -2.67,-1.88 c -3.69,-0.08 -7.39,-0.09 -11.09,-0.02 c -2.85,-0.42 -2.85,-0.89 0.02,-1.4 c 2.5,-0.23 4.99,-0.54 7.47,-0.91 c 1.83,0.24 3.66,0.49 5.48,0.72 c 2.74,-1.29 3.1,-5.86 0.74,-7.65 c -1.36,-3.63 -11.63,-2.66 -14.7,-2.18 c -1.05,0.12 -1.79,-0.28 -2.22,-1.2 c 4.18,-0.8 8.42,-1.3 12.71,-1.5 c 0.8,0.5 1.64,0.92 2.51,1.26 c 2.93,0.08 3.18,-5.69 1.47,-6.32 c 0,-2.62 -5.55,-4.12 -7.56,-4.17 c -7.23,0.26 -21.92,0.21 -18.83,11.53 c -0.15,0.9 -0.33,1.78 -0.52,2.67 Z M 46.3,84.02 c 1.79,3.94 3.23,6.93 0.02,10.62 c -0.22,1.83 1.77,2.18 2.41,0.67 c 1.88,-4.52 2.43,-7.13 0.49,-11.98 c -0.74,-2.09 -3.37,-1.91 -2.92,0.69 Z M 79.81,99.01 c 0.05,0.43 0.09,0.86 0.14,1.3 c -0.24,0.28 -0.51,0.53 -0.8,0.77 c -0.37,-0.47 -0.74,-0.94 -1.12,-1.41 c -1.9,-2.49 -4.38,-3.37 -7.44,-2.62 c -0.81,0.61 0.51,1.64 1.09,1.84 c 0.39,1.38 1.05,2.64 1.96,3.75 c 2.14,5.08 2.1,10.27 2.03,15.67 c -0.46,6.04 -2.74,11.29 -6.82,15.73 c -2.36,1.42 -3.17,2.39 -6.32,2.08 c -0.08,0.12 -0.16,0.24 -0.25,0.37 c 1.64,4.18 3.53,8.25 5.66,12.2 c -0.19,3.05 -0.51,6.12 -0.97,9.23 c -0.05,0.75 0.19,1.38 0.72,1.89 c 3.14,1.46 6.41,2.56 9.8,3.31 c 3.72,0.57 7.44,1.09 11.16,1.58 c 8.34,0.63 16.65,0.36 24.93,-0.82 c 0.77,-0.05 1.45,-0.31 2.05,-0.77 c -0.17,-1.13 -0.27,-2.29 -0.3,-3.47 c 0.57,-3.33 2.17,-4.73 4.29,-7.15 c -1.69,-1.34 -5.6,2.63 -5.84,-2.7 c 0.03,-0.22 -0.03,-0.4 -0.19,-0.54 c -0.17,0.22 -0.27,0.46 -0.29,0.74 c -0.94,3.41 -5.29,4.29 -7.9,1.99 c -0.61,-1.24 -1.25,-2.46 -1.93,-3.66 c -0.14,1.28 -0.49,2.49 -1.06,3.64 c -2.33,2.23 -4.78,2.37 -7.34,0.41 c -0.58,-1.05 -1.09,-2.13 -1.53,-3.26 c -1.89,1.68 1.83,5.84 -3.57,4.41 c -0.71,-1.14 -1.54,-2.17 -2.5,-3.1 c -0.6,1.14 0.46,2.81 -1.08,3.41 c -1.35,0.44 -2.18,0 -2.49,-1.3 c -0.06,-3.3 0.03,-6.58 0.27,-9.86 c 0.72,-0.82 1.62,-1.1 2.7,-0.84 c 0.87,1 1.23,3.45 2.59,3.82 c 0.17,-1.66 0.76,-6.08 3.34,-3.05 c 0.17,0.85 0.33,1.7 0.47,2.56 c 0.01,0.27 0.1,0.52 0.28,0.72 c 0.14,-0.31 0.19,-0.64 0.15,-0.98 c 2.07,-3.34 5.69,-5.65 8.73,-1.85 c 0.71,0.78 0.6,4.1 2,1.93 c 1.2,-3.77 3.61,-4.82 7.22,-3.14 c 0.69,1.01 1.36,2.03 1.99,3.06 c 0.15,-0.1 0.3,-0.2 0.45,-0.3 c 0.47,-4.69 1.76,-4.08 5.99,-3.88 c 2.29,1.85 1.67,3.17 1.07,5.74 c 0.67,1.36 1.12,2.79 1.35,4.26 c 1.68,-0.55 3.34,-1.08 4.99,-1.61 c -0.03,-2.77 0.25,-5.53 0.83,-8.28 c 0.2,-2.94 0.67,-5.9 1.41,-8.87 c 0.46,-5.23 -0.58,-9.05 -1.34,-14.01 c 0.24,-0.34 0.48,-0.67 0.71,-1.01 c 1.06,0.18 1.4,4.1 2.21,5.03 c 0.58,2.57 0.9,5.2 0.94,7.88 c -0.26,0.79 -0.14,1.52 0.35,2.18 c 2.46,1.6 6.32,5.46 8.34,1.03 c 1.22,-0.26 2.5,-2.3 3.7,-1.54 c -1.88,1.74 -3.49,3.69 -4.83,5.87 c -0.41,1.37 -2.88,5.2 -0.47,5.93 c 4.28,1.25 7.52,3.82 9.73,7.72 c 0.5,2.81 1.78,3.25 3.84,1.29 c 4.21,-3.81 7.41,-7.46 8.99,-13.04 c 1.32,-1.92 2.56,-3.87 1.42,-6.24 c -2.12,-4.59 -5.86,-8.09 -8.76,-12.16 c -2.75,-3.5 -6.14,-6.14 -10.18,-7.94 c -0.78,-0.09 -1.52,-0.28 -2.22,-0.57 c -2.95,-8.54 -12.14,-13.29 -20.81,-11.86 c 0.71,1.74 2.31,2.6 2.4,4.69 c -0.26,0.13 -0.46,0.33 -0.61,0.59 c -0.33,-0.06 -0.62,-0.21 -0.85,-0.47 c -2.22,-3.27 -4.76,-7.49 -9.36,-6.82 c -1.74,0.62 0.2,2.37 0.69,3.13 c 1.44,4.15 1.55,6.87 -0.87,10.7 c -0.37,0.81 -0.98,1.26 -1.86,1.34 c -0.13,-0.27 -0.34,-0.45 -0.64,-0.54 c 0.8,-1.35 1.56,-2.72 2.28,-4.13 c 0.14,-1.03 0.21,-2.06 0.22,-3.1 c -0.34,-1.56 -1.63,-5.12 -3.24,-5.63 c -1.13,0.57 -1.62,1.52 -1.47,2.83 c -0.05,0.89 -0.43,1.57 -1.16,2.05 c -0.34,-0.75 -0.8,-1.39 -1.38,-1.94 c -5.44,1.45 -11.89,-0.71 -16.49,-3.7 c -2.98,-1.74 -5.85,-3.61 -8.62,-5.63 c -0.52,-0.09 -0.85,0.11 -0.97,0.6 c 0.43,1.13 0.27,2.16 -0.49,3.1 c -0.17,0.8 0.12,1.27 0.88,1.42 Z M 41.2,121.86 c -1.94,0.69 -3.89,1.34 -5.85,1.94 c -1.29,0.18 -2.58,0.25 -3.88,0.21 c -0.86,0.69 -0.09,1.05 0.54,1.54 c 3.2,1.71 5.6,3.81 9.44,3.83 c 3.8,-0.88 3.96,-0.03 6.98,0.89 c 4.82,-0.36 9.52,-1.33 14.08,-2.93 c 0.34,0.2 0.42,0.48 0.26,0.84 c -2.29,1.4 -2.42,3.03 -0.37,4.91 c 3.07,3.72 8.34,-3.16 8.6,-6.14 c 0.35,-0.11 0.61,-0.34 0.77,-0.68 c 2.35,-6.76 2.66,-13.62 0.93,-20.58 c -1.29,-5.36 -3.81,-8.37 -9.37,-9.34 c -3.04,0.08 -5.66,0.33 -7.91,2.55 c -3.33,-0.01 -4.64,-0.77 -7.37,1.69 c -0.35,0.6 -0.45,1.24 -0.3,1.92 c 1.62,5.51 1.4,11.57 -2.69,15.97 c -1.3,1.13 -2.58,2.26 -3.86,3.38 Z M 22.63,116.65 c 8.17,12.65 28.8,1.77 23.84,-11.76 c -0.37,-0.48 -0.8,-0.57 -1.27,-0.25 c -0.06,1.26 0.1,2.5 0.46,3.72 c -1.23,9.16 -15.29,9.98 -22.13,7.9 c -0.36,0.02 -0.66,0.15 -0.9,0.39 Z M 118.97,139.27 c -0.63,-0.26 -1.12,-0.67 -1.49,-1.23 c -0.01,-1.34 -0.33,-2.58 -0.96,-3.72 c -1,1.18 -0.55,4.26 -2.8,3.73 c -0.97,-0.78 -0.87,-2.67 -2.21,-2.88 c -0.34,1.01 -0.52,2.07 -0.55,3.19 c -1.8,2.01 -3.86,0.57 -3.67,-1.86 c -0.02,-2.7 -0.02,-5.4 0,-8.1 c -0.44,-1.42 -1,-1.45 -1.67,-0.08 c -0.72,1.56 -1.44,3.13 -2.14,4.7 c -0.56,1.53 0.69,6.07 -1.37,6.57 c -1,0.24 -1.93,0.16 -2.81,-0.26 c 0.46,-5.02 -0.27,-6.41 -2.76,-10.44 c -0.88,-1.95 -1.68,0.28 -2.18,0.99 c -0.28,0.1 -0.55,0.21 -0.82,0.31 c -1.3,-0.27 -2.58,-0.57 -3.85,-0.92 c -1.91,0.58 -1.25,4.7 -1.36,6.11 c 0.17,0.68 0.6,1.1 1.28,1.26 c 2.26,-0.12 2.52,-0.87 0.78,-2.25 c -0.59,-2.61 2.38,-2.25 4.03,-2.03 c 2.63,0.52 0.55,5.03 -0.24,6.35 c -2.71,1.84 -5.47,1.92 -8.3,0.23 c -1.51,-2.56 -2.02,-5.31 -1.54,-8.26 c 1.53,-5.45 5.68,-6.55 10.27,-3.79 c 6.3,-3.39 4.43,1.78 6.66,1.87 c 1.67,-1.41 1.04,-3.56 4,-3.44 c 2.31,1.19 3.02,-0.44 5.17,0.05 c 2.99,0.34 1.96,4.71 3.99,5.33 c 0.68,-1.65 1.2,-3.35 1.58,-5.09 c 1.01,-0.87 2.17,-1.12 3.49,-0.76 c 0.49,0.18 0.82,0.52 0.99,1.01 c 0.17,3.89 0.31,7.78 0.41,11.68 c -0.42,0.8 -1.06,1.38 -1.93,1.73 Z M 129.7,146.04 c 0.33,1.97 1.11,2.12 2.33,0.46 c 0.67,-1.65 1.83,-2.78 3.49,-3.41 c 0.56,-1.14 1.81,-4.23 1.46,-5.42 c -1.06,-0.6 -4.27,-2.96 -5.31,-2.72 c -0.56,1.87 -1,3.77 -1.34,5.72 c 0.02,1.82 -0.19,3.61 -0.63,5.37 Z M 116.82,143.87 c 0.15,0.92 0.67,1.34 1.57,1.26 c 1.45,-1.58 -0.47,-2.65 -1.57,-1.26 Z M 107.25,147.03 c -0.2,3.59 2.82,4.27 2.94,0.44 c 0.42,-3.75 -3.37,-4.14 -2.94,-0.44 Z M 97.26,148.99 c 0.05,0.86 0.49,1.41 1.3,1.67 c 2.17,-0.79 1.79,-4 0.69,-5.44 c -2.84,-0.8 -1.78,2.16 -1.99,3.77 Z M 133.32,149.63 c 5.36,2.4 8.01,6 10.36,11.19 c 0.49,0.13 0.92,0.02 1.29,-0.34 c 1.85,-2.54 4.73,-1.4 3.61,-5.53 c -1.61,-5.15 -4.73,-8.57 -10.05,-9.9 c -3.38,-0.84 -4.98,1.63 -5.21,4.58 Z M 117.19,149.15 c 0.13,0.62 0.53,0.85 1.19,0.7 c 0.91,-0.6 0.96,-1.27 0.13,-2.01 c -0.87,-0.01 -1.31,0.42 -1.32,1.31 Z"/>
<path fill="#e5db11" d="M 97.26,148.99 c 0.21,-1.61 -0.85,-4.57 1.99,-3.77 c 1.1,1.44 1.48,4.65 -0.69,5.44 c -0.81,-0.26 -1.25,-0.81 -1.3,-1.67 Z"/>
<path fill="#f4dd2e" stroke="#f4dd2e" stroke-width="0.5" d="M 129.7,146.04 c 0.44,-1.76 0.65,-3.55 0.63,-5.37 c 0.34,-1.95 0.78,-3.85 1.34,-5.72 c 1.04,-0.24 4.25,2.12 5.31,2.72 c 0.35,1.19 -0.9,4.28 -1.46,5.42 c -1.66,0.63 -2.82,1.76 -3.49,3.41 c -1.22,1.66 -2,1.51 -2.33,-0.46 Z"/>
<path fill="#eab93b" d="M 46.3,84.02 c -0.45,-2.6 2.18,-2.78 2.92,-0.69 c 1.94,4.85 1.39,7.46 -0.49,11.98 c -0.64,1.51 -2.63,1.16 -2.41,-0.67 c 3.21,-3.69 1.77,-6.68 -0.02,-10.62 Z"/>
<path fill="#efbe6c" d="M 125.16,63.96 c 0.86,-1.35 -0.47,-6.81 2.22,-5.81 c 3.1,1.46 2.9,10.27 0.86,12.79 c -1.28,0.54 -2.17,-5.92 -3.08,-6.98 Z"/>
<path fill="#f7c78d" stroke="#f7c78d" stroke-width="0.5" d="M 26.61,54.07 c -0.15,-3.35 1.41,-5.25 4.69,-5.71 c 7.88,1.07 8.37,12.22 6.44,18.17 c 0.1,0.96 0.19,1.92 0.29,2.89 c -0.19,0.12 -0.38,0.24 -0.57,0.37 c -2.36,-0.27 -4.7,-0.17 -7.03,0.29 c -0.64,0.15 -1.12,-0.06 -1.44,-0.62 c 0.64,-5.51 -1.94,-9.88 -2.38,-15.39 Z"/>
<path fill="#eae20e" d="M 107.25,147.03 c -0.43,-3.7 3.36,-3.31 2.94,0.44 c -0.12,3.83 -3.14,3.15 -2.94,-0.44 Z"/>
<path fill="#aa7532" d="M 132.94,128.95 c -0.22,0.31 -0.45,0.61 -0.69,0.9 c -0.04,-2.68 -0.36,-5.31 -0.94,-7.88 c 0.24,-0.97 0.62,-1.87 1.14,-2.71 c 0.58,3.2 0.74,6.43 0.49,9.69 Z"/>
<path fill="#fef6bc" d="M 168.91,80.9 c -0.22,-0.04 -0.45,-0.08 -0.68,-0.12 c -0.85,0.01 -1.71,-0.04 -2.56,-0.15 c -1.04,-0.78 0.06,-1.84 0.88,-2.16 c 0.73,0.85 1.52,1.66 2.36,2.43 Z"/>
<path fill="#d0342c" d="M 58.25,51.68 c -1.02,1.82 2.47,5.72 0.29,6.24 c -1.41,-1.59 -3.39,-5.08 -0.29,-6.24 Z"/>
<path fill="#f5c518" d="M 175.6,62.82 c -1.41,-0.4 -1.67,0.17 -1.43,-1.43 c 2.73,-2.27 3.38,-0.33 1.43,1.43 Z"/>
<path fill="#f7e06d" d="M 151.05,113.75 c -1.24,0 -1.95,-0.63 -2.13,-1.9 c 2.05,-1.94 4.78,0.12 2.13,1.9 Z"/>
<path fill="#f5c518" d="M 57.27,155.91 c -0.33,-1.26 2.06,-0.41 2.35,0.59 c -1.13,1.66 -1.91,1.46 -2.35,-0.59 Z"/>
<path fill="#fce899" d="M 29.29,135.33 c 0.87,-0.21 1.67,-0.03 2.39,0.53 c 0.82,1.26 0.49,1.93 -0.98,1.99 c -0.6,-0.75 -1.07,-1.59 -1.41,-2.52 Z"/>
<path fill="#f5c518" d="M 174.3,81.66 c 0.28,-0.92 1.51,-1.85 2.4,-1.13 c 0.05,1.68 -1.33,3.01 -2.4,1.13 Z"/>
<path fill="#f5c518" d="M 177.9,66.01 c 0.22,-0.81 0.74,-1.14 1.57,-1 c 2.43,0.91 -0.12,3.07 -0.08,4.84 c -0.69,1.12 -1.05,1.05 -1.1,-0.21 c 0.08,-2.09 1.19,-1.54 -0.39,-3.63 Z"/>
<path fill="#f5c518" d="M 159.27,44.73 c -0.02,-1.47 0.68,-2.33 2.11,-2.59 c 1.33,1.36 -0.75,2.74 -2.11,2.59 Z"/>
<path fill="#f5c518" d="M 162.02,37.07 c 0.28,-1.7 1.08,-2.06 2.41,-1.08 c 0.59,1.76 -2.11,2.94 -2.41,1.08 Z"/>
<path fill="#fdec9d" d="M 167.73,82.22 c 0.8,1.18 2.43,2.41 0.71,3.71 c -1.93,1.01 -3.96,3.21 -6.18,1.88 c -1.29,-1.56 -1.97,0.13 -3.56,-0.06 c -0.49,-0.49 -0.55,-1.04 -0.17,-1.64 c 1.35,-0.51 3.55,0.77 4.39,-0.71 c -1.02,-1.01 -1.12,-2.07 -0.31,-3.2 c 0.97,-0.12 1.9,0.02 2.8,0.42 c 0.77,-0.19 1.54,-0.32 2.32,-0.4 Z"/>
<path fill="#fedd62" d="M 172.79,64.85 c 0.11,1.33 -2.01,1.71 -2.84,2.35 c -0.14,-1.99 0.66,-4.24 2.84,-2.35 Z"/>
<path fill="#fdf4b3" d="M 166.07,68.18 c 0.11,0.36 0.33,0.6 0.68,0.73 c -0.52,1.93 -1.3,2.1 -2.35,0.52 c 0.4,-0.62 0.95,-1.04 1.67,-1.25 Z"/>
<path fill="#f5c518" stroke="#f5c518" stroke-width="0.5" d="M 130.14,27.98 c 0.64,0.02 1.22,0.24 1.71,0.63 c -0.02,1.32 0.21,2.59 0.69,3.8 c -0.34,2.17 -0.71,4.32 -1.1,6.44 c 0.58,-0.77 2.76,-1.61 2.79,-0.05 c -0.71,0.36 -3.66,2.38 -1.71,3.06 c 2.55,-1.2 5.17,-2.21 7.87,-3.02 c 0.75,0.03 1.48,0.14 2.2,0.36 c 1.67,-0.17 1.47,-1.96 3.49,-1.26 c 0.11,1.04 -0.25,1.91 -1.09,2.62 c 0.58,1.16 0.93,2.39 1.06,3.69 c -0.82,-0.46 -1.44,-1.12 -1.87,-1.97 c -0.49,-0.33 -0.91,-0.26 -1.28,0.19 c 0.42,1.29 0.79,2.6 1.1,3.95 c 0.6,0.66 1.19,1.31 1.78,1.94 c -0.78,0.54 -1.58,1.08 -2.4,1.61 c -0.76,0.48 -1.94,2.28 -0.05,2.07 c 2.14,-0.92 1.45,-2.63 4.07,-0.92 c -0.33,1.51 -0.83,3 -1.51,4.48 c -0.03,1 0.4,1.32 1.3,0.96 c 0.39,-1.13 0.85,-2.22 1.38,-3.28 c 1.2,0.93 2.47,1.75 3.8,2.45 c -0.48,2.29 0.31,3.45 -2.56,3.45 c -0.43,0.27 -0.59,0.66 -0.46,1.16 c 0.75,3.59 6.31,-1.12 6.42,1.84 c -0.71,0.86 -1.98,0.74 -2.02,2.13 c -1.46,0.71 -2.95,1.36 -4.45,1.95 c -0.73,-0.02 -1.35,-0.28 -1.86,-0.8 c -0.04,0.67 -0.14,1.35 -0.28,2.02 c -0.72,0.66 -1.53,1.2 -2.43,1.6 c -0.7,1.39 -0.35,1.79 1.04,1.21 c 0.46,-0.65 1.03,-1.16 1.71,-1.53 c 3.22,0.23 2.74,-1.24 5.16,-2.53 c 1.34,0.03 2.52,1.5 2.21,-1.05 c 1.25,-0.4 2.44,-0.26 3.56,0.43 c 0.59,-0.21 1.14,-0.48 1.67,-0.82 c 3.1,0.47 0.23,1.66 2.43,2.76 c 0.19,-0.73 0.59,-1.29 1.2,-1.71 c 1.35,0.26 2.14,1.04 2.36,2.34 c -0.72,0.21 -1.27,0.63 -1.67,1.25 c 1.05,1.58 1.83,1.41 2.35,-0.52 c 1.14,-0.09 1.19,1.61 1.69,2.29 c 0.86,0.56 1.49,1.31 1.9,2.23 c -0.04,0.33 -0.08,0.67 -0.12,1 c -0.75,0.32 -1.49,0.64 -2.23,0.94 c -0.28,1.38 -0.12,3.52 1.86,2.59 c 0.48,0.79 0.85,1.62 1.12,2.48 c -0.56,0.62 -1.25,0.77 -2.06,0.46 c -0.84,-0.77 -1.63,-1.58 -2.36,-2.43 c -0.82,0.32 -1.92,1.38 -0.88,2.16 c 0.85,0.11 1.71,0.16 2.56,0.15 c -0.17,0.48 -0.33,0.96 -0.5,1.44 c -0.78,0.08 -1.55,0.21 -2.32,0.4 c -0.9,-0.4 -1.83,-0.54 -2.8,-0.42 c -0.81,1.13 -0.71,2.19 0.31,3.2 c -0.84,1.48 -3.04,0.2 -4.39,0.71 c -0.38,0.6 -0.32,1.15 0.17,1.64 c 1.59,0.19 2.27,-1.5 3.56,0.06 c -0.22,0.74 -0.6,1.38 -1.13,1.93 c -1.03,0.26 -2.03,0.55 -3,0.86 c -0.22,1.84 1.2,1.33 2.35,1.4 c 0.47,0.34 0.47,0.68 -0.02,1.03 c -2.68,1.73 -3.92,-1.37 -5.08,-0.56 c 0.73,1.44 1.81,2.53 3.21,3.28 c 1.64,-0.49 3.28,-0.96 4.94,-1.4 c 0.42,0.74 0.25,1.29 -0.51,1.68 c -0.46,0.31 -0.77,0.73 -0.93,1.26 c -5.55,-0.71 -2.64,2.93 -4.5,4.8 c -0.52,-0.64 -0.96,-1.32 -1.34,-2.07 c -0.46,-0.14 -0.78,0.02 -0.96,0.46 c -0.06,1.97 1.66,2.39 0.68,4.53 c -0.17,0 -0.34,0 -0.51,0 c -0.87,-1.92 -1.37,-3.15 -1.97,-0.07 c -0.69,-0.53 -1.37,-1.09 -2.04,-1.66 c -1.79,2.29 2.13,3.53 0.2,4.79 c -1,-0.93 -2.05,-1.83 -3.13,-2.7 c -1.13,1.84 1.67,1.8 1.74,3.69 c -0.87,0.9 -1.66,1.86 -2.36,2.9 c -4.06,-1.34 -3.61,-1.35 -5.54,-4.91 c -5.72,-7.23 -12.85,-9.67 -21.91,-8.82 c -1.46,-0.63 -2.93,-1.24 -4.4,-1.84 c -0.14,-0.53 0,-0.97 0.42,-1.33 c 6.45,-5.41 10.81,-10.84 11.47,-19.55 c 4.3,-5.8 5.62,-12.08 1.33,-18.35 c -1.07,-0.47 -2.04,-1.08 -2.9,-1.83 c 0.39,-4.11 0.26,-6.27 2.34,-10 c -0.38,-2.88 -0.83,-5.74 -1.36,-8.6 c 0.91,-1.07 1.7,-2.21 2.38,-3.43 c 0.38,-1.93 -1.61,-4 0.41,-5.32 Z M 149.74,63.85 c 0.43,0.07 0.75,-0.07 0.98,-0.42 c -0.47,-0.27 -0.8,-0.13 -0.98,0.42 Z M 153.13,96.01 c 2.32,1.76 2.84,-0.81 1.36,-2.01 c -1.13,0.16 -1.59,0.83 -1.36,2.01 Z"/>
<path fill="#feec9a" d="M 153.13,96.01 c -0.23,-1.18 0.23,-1.85 1.36,-2.01 c 1.48,1.2 0.96,3.77 -1.36,2.01 Z"/>
<path fill="#f3cb7a" d="M 30.99,130.92 c 0.81,-0.05 1.52,0.19 2.11,0.72 c 0.09,1.04 -0.38,1.51 -1.42,1.44 c -0.56,-0.61 -0.79,-1.33 -0.69,-2.16 Z"/>
<path fill="#a08103" d="M 116.82,143.87 c 1.1,-1.39 3.02,-0.32 1.57,1.26 c -0.9,0.08 -1.42,-0.34 -1.57,-1.26 Z"/>
<path fill="#fef5cd" d="M 46.79,146.21 c -0.37,-2.59 2.39,-3.04 2.38,-0.81 c -0.66,0.63 -1.45,0.9 -2.38,0.81 Z"/>
<path fill="#a79805" d="M 117.19,149.15 c 0.01,-0.89 0.45,-1.32 1.32,-1.31 c 0.83,0.74 0.78,1.41 -0.13,2.01 c -0.66,0.15 -1.06,-0.08 -1.19,-0.7 Z"/>
<path fill="#948451" d="M 64.3,155.93 c 0.1,0.11 0.21,0.22 0.31,0.33 c 0.12,1.31 0.22,2.62 0.28,3.93 c -0.94,-1.3 -1.14,-2.72 -0.59,-4.26 Z"/>
<path fill="#98988d" d="M 108.98,57.05 c 0.77,-0.29 1.4,-0.13 1.89,0.48 c -1.1,1.61 -1.73,1.45 -1.89,-0.48 Z"/>
<path fill="#fee467" d="M 161.99,32.27 c 0.05,-0.96 0.54,-1.41 1.49,-1.37 c 1.24,1.26 -0.88,2.31 -1.49,1.37 Z"/>
<path fill="#837446" d="M 31.98,128.22 c 0.48,0.16 0.77,0.49 0.88,0.99 c -0.48,-0.17 -0.77,-0.5 -0.88,-0.99 Z M 32.86,129.21 c 0.48,0.02 0.81,0.24 0.99,0.68 c -0.37,-0.16 -0.7,-0.38 -0.99,-0.68 Z"/>
<path fill="#696055" d="M 107.89,56.97 c -0.06,0.72 -0.23,1.41 -0.52,2.06 c -0.24,-0.81 -0.06,-1.5 0.52,-2.06 Z"/>
<path fill="#7a6547" d="M 28.05,125.04 c 0.51,0.16 0.79,0.51 0.84,1.05 c -0.53,-0.15 -0.81,-0.5 -0.84,-1.05 Z M 28.89,126.09 c 0.61,-0.01 0.99,0.27 1.16,0.84 c -0.52,-0.1 -0.9,-0.39 -1.16,-0.84 Z"/>
<path fill="#fae27b" d="M 5.07,107.16 c 0.75,-0.25 1.37,-0.09 1.88,0.47 c -0.92,0.87 -1.54,0.71 -1.88,-0.47 Z"/>
<path fill="#fbd76c" d="M 174.67,69.92 c 0.31,-0.76 0.78,-0.86 1.4,-0.3 c 0.48,1.38 -1.14,1.61 -1.4,0.3 Z"/>
<path fill="#fdfcbd" d="M 54.99,149.07 c 0.28,-0.77 0.83,-1.18 1.65,-1.22 c 1.25,0.92 -1.11,1.29 -1.65,1.22 Z"/>
<path fill="#9c6932" d="M 17.05,86.01 c 0.01,0.89 -0.33,1.59 -1.03,2.11 c -0.05,-0.91 0.29,-1.62 1.03,-2.11 Z"/>
<path fill="#b8ae8b" d="M 163.09,128.05 c 0.44,0.21 0.67,0.55 0.67,1.04 c -0.42,-0.22 -0.64,-0.56 -0.67,-1.04 Z"/>
<path fill="#aa863a" d="M 151.05,113.75 c 0.57,0.24 0.86,0.68 0.87,1.3 c -0.52,-0.28 -0.81,-0.71 -0.87,-1.3 Z"/>
<path fill="#fff4b0" d="M 149.74,63.85 c 0.18,-0.55 0.51,-0.69 0.98,-0.42 c -0.23,0.35 -0.55,0.49 -0.98,0.42 Z"/>
<path fill="#645e3e" d="M 20.04,71.97 c -0.24,0.42 -0.58,0.68 -1.05,0.8 c 0.23,-0.43 0.58,-0.69 1.05,-0.8 Z"/>
<path fill="#8e7944" d="M 73.08,12.91 c -0.17,0.58 -0.55,0.95 -1.12,1.12 c 0.13,-0.62 0.5,-0.99 1.12,-1.12 Z"/>
<path fill="#f9cb89" stroke="#f9cb89" stroke-width="0.5" d="M 86.08,93.08 c -0.13,-1.98 -1.61,-1.89 -2.95,-2.75 c -1.13,-1.38 -4.58,-3.77 -6.34,-3.5 c -3.58,-1.11 -3.93,-8.11 -6.68,-8.76 c -0.64,-0.85 -1.25,-1.71 -1.84,-2.57 c 1.61,-1.94 2.1,-2.12 -0.25,-3.74 c -0.1,-0.28 -0.19,-0.56 -0.29,-0.84 c 0.73,-0.93 1.48,-1.85 2.26,-2.75 c 1.32,-0.47 3.38,-0.8 3.3,-2.66 c -1.5,-4.39 0.22,-6.88 0.48,-11.02 c -0.3,-1.97 -0.54,-3.94 -0.72,-5.91 c 0.39,-1.45 5.25,-3.09 6.52,-4.18 c 0.21,1.35 0.28,2.76 0.2,4.21 c 0.57,2.66 2.15,-0.76 3.05,-1.24 c 0.67,-0.53 1.41,-0.96 2.2,-1.29 c 0.76,1.38 -1.51,2.42 -1.81,3.69 c 0.32,0.69 0.58,1.42 0.78,2.17 c -3.55,4.45 -3.71,9 -0.47,13.65 c 0.28,-0.38 0.43,-0.83 0.46,-1.32 c 0.63,0.37 1,0.94 1.09,1.71 c 0.16,2.69 5.21,2.77 5.21,1.34 c 1.78,0.86 3.23,0.46 4.36,-1.21 c 1.89,-1.57 2.64,-3.57 2.26,-5.97 c 0.78,-1.02 1,-2.17 0.65,-3.46 c -0.71,-2.27 -1.98,-4.17 -3.79,-5.69 c 1.31,-1.4 0.78,-1.54 0.31,-3.12 c 1.88,0.23 2.85,-0.56 2.91,-2.39 c -0.37,-0.92 -0.79,-1.8 -1.28,-2.66 c -0.9,-0.72 -1.76,-1.47 -2.58,-2.26 c 1.88,-1.76 13.34,-1.26 16.19,-1.3 c 2.01,0.51 -0.96,2.55 -1.19,3.39 c -0.84,0.91 -1.65,4.54 0.26,4.52 c 1.22,-0.42 2.32,-1.06 3.29,-1.92 c 2.22,-0.74 4.44,-0.74 6.65,-0.01 c 0.96,0.48 1.6,2.43 2.78,1.26 c 0.07,-1.07 0.21,-2.11 0.43,-3.11 c 1.77,0.4 1.62,2.85 2.04,4.25 c 0.25,4.9 0.19,9.79 -0.18,14.68 c 1,3.65 1.76,7.34 2.3,11.08 c 0.8,10.06 -8.35,19.66 -16.66,24.05 c -6.09,2.8 -19.13,1.25 -22.95,-4.37 Z M 107.84,55.1 c 0.27,0.06 0.55,0.12 0.82,0.17 c -0.26,0.55 -0.52,1.11 -0.77,1.7 c -0.58,0.56 -0.76,1.25 -0.52,2.06 c -0.07,0.34 -0.13,0.67 -0.2,1 c -0.88,-0.37 -1.66,-0.25 -2.35,0.37 c 0,1.52 0.17,3.03 0.49,4.52 c -0.83,1.54 2.67,1.27 3.41,1.77 c 1.72,0.64 3.13,3.34 1.31,4.56 c -2.95,0.54 -5.92,1 -8.91,1.38 c -0.66,1.64 2.18,1.69 2.95,2.8 c 0.97,0.49 1.88,0.43 2.71,-0.2 c 4.59,-0.84 6.33,-3.51 5.21,-8.01 c 1.27,-1.09 2.76,-1.58 4.45,-1.47 c 2.68,-0.65 1.96,-1.43 2.74,-3.62 c 2.67,-5 0.07,-10.5 -4.83,-12.75 c -3.11,-0.53 -5.45,0.58 -7.02,3.32 c -0.26,0.92 -0.09,1.72 0.51,2.4 Z M 109.17,86.74 c 2.15,-1.9 3.46,-4.26 3.93,-7.07 c 0.59,-0.51 1.25,-0.91 1.98,-1.21 c 0.92,-0.76 0.8,-1.15 -0.36,-1.15 c -0.74,0.34 -1.5,0.65 -2.27,0.93 c -1.64,0.05 -3.26,0.25 -4.87,0.61 c -2.51,0.11 -5,-0.11 -7.45,-0.67 c -3.15,-0.54 -6.19,-1.44 -9.13,-2.7 c -1.88,-0.5 -3.06,-1.68 -3.53,-3.55 c -2.51,-1.8 -5.22,0.23 -6.16,2.68 c 0.62,0.25 1.2,0.58 1.75,0.99 c 0.56,3.95 1.8,5.65 3.94,8.86 c 4.96,5.35 9.43,5.28 16.33,5.23 c 1.18,-0.37 2.34,-0.79 3.49,-1.24 c 0.72,-0.67 1.5,-1.24 2.35,-1.71 Z M 43.96,75.98 c -0.33,0.55 -0.82,0.69 -1.45,0.41 c -0.22,0.62 -0.39,1.27 -0.54,1.93 c -0.74,0.85 -1.4,1.76 -1.99,2.72 c -4.29,0.2 -8.53,0.7 -12.71,1.5 c 0.43,0.92 1.17,1.32 2.22,1.2 c 3.07,-0.48 13.34,-1.45 14.7,2.18 c -0.21,4.74 -2.05,5.87 -6.22,6.93 c -2.48,0.37 -4.97,0.68 -7.47,0.91 c -2.87,0.51 -2.87,0.98 -0.02,1.4 c 3.7,-0.07 7.4,-0.06 11.09,0.02 c 1.37,-0.03 2.26,0.6 2.67,1.88 c -0.08,1.01 -0.35,1.97 -0.81,2.86 c -1.49,1.22 -2.93,2.48 -4.35,3.77 c -2.47,0.43 -4.95,0.63 -7.46,0.62 c -0.67,0.1 -1.11,0.46 -1.33,1.1 c 1.62,1.86 14.54,-2.51 12.75,3.44 c -0.46,-0.04 -0.9,0.02 -1.33,0.18 c -5.43,3.22 -12.04,6.21 -18.16,2.85 c -2.09,-2.2 -2.24,-4.86 -3.35,-7.54 c -0.85,-1.67 -2.64,-2.61 -2.29,-4.76 c 0.18,-1.22 0.38,-2.42 0.59,-3.61 c -0.43,-1.34 -1.23,-2.39 -2.41,-3.15 c -1.5,-1.54 -0.34,-2.95 -0.07,-4.7 c 0.7,-0.52 1.04,-1.22 1.03,-2.11 c 0.19,-0.89 0.37,-1.77 0.52,-2.67 c -3.09,-11.32 11.6,-11.27 18.83,-11.53 c 2.01,0.05 7.56,1.55 7.56,4.17 Z M 99.09,92.25 c 0.88,1.3 2.78,1.53 3.86,0.29 c -0.8,-1.11 -2.72,-0.39 -3.86,-0.29 Z M 71,126.95 c -1.96,-2.14 -3.81,-4.36 -5.54,-6.65 c -0.84,0.38 -1.67,0.79 -2.49,1.22 c -2.97,0.38 -5.76,0.51 -7.62,3.09 c -2.49,0.62 -6.07,0.02 -8.71,0.06 c -1.63,-1.28 -3.45,-2.22 -5.44,-2.81 c 1.28,-1.12 2.56,-2.25 3.86,-3.38 c 4.09,-4.4 4.31,-10.46 2.69,-15.97 c -0.15,-0.68 -0.05,-1.32 0.3,-1.92 c 2.73,-2.46 4.04,-1.7 7.37,-1.69 c 2.25,-2.22 4.87,-2.47 7.91,-2.55 c 5.56,0.97 8.08,3.98 9.37,9.34 c 1.73,6.96 1.42,13.82 -0.93,20.58 c -0.16,0.34 -0.42,0.57 -0.77,0.68 Z"/>
<path fill="#8e683f" d="M 99.09,92.25 c 1.14,-0.1 3.06,-0.82 3.86,0.29 c -1.08,1.24 -2.98,1.01 -3.86,-0.29 Z"/>
<path fill="#a28666" d="M 107.17,60.03 c 0.62,1.74 1.28,3.48 1.95,5.23 c -1.84,0.14 -2.24,-1.65 -3.81,-0.34 c -0.32,-1.49 -0.49,-3 -0.49,-4.52 c 0.69,-0.62 1.47,-0.74 2.35,-0.37 Z"/>
<path fill="#f5c518" stroke="#f5c518" stroke-width="0.5" d="M 78.03,99.67 c 0.38,0.47 0.75,0.94 1.12,1.41 c 3.35,3.87 6.92,10.88 11.92,12.57 c 3.85,4.21 16.62,5.09 19.82,0.03 c 0.88,-0.08 1.49,-0.53 1.86,-1.34 c 2.42,-3.83 2.31,-6.55 0.87,-10.7 c -0.49,-0.76 -2.43,-2.51 -0.69,-3.13 c 4.6,-0.67 7.14,3.55 9.36,6.82 c 0.23,0.26 0.52,0.41 0.85,0.47 c 0.06,0.66 0.22,1.3 0.48,1.91 c 1.67,3.38 3.26,6.79 4.77,10.24 c 0.76,4.96 1.8,8.78 1.34,14.01 c -0.67,0.07 -1.32,0.2 -1.96,0.39 c -0.41,0.86 -3.71,3.6 -2.12,4.44 c 1.04,0.33 1.69,-1.07 2.44,-0.27 c 0.05,1.44 0.13,2.88 0.23,4.31 c -0.58,2.75 -0.86,5.51 -0.83,8.28 c -1.65,0.53 -3.31,1.06 -4.99,1.61 c -0.23,-1.47 -0.68,-2.9 -1.35,-4.26 c 0.6,-2.57 1.22,-3.89 -1.07,-5.74 c -0.36,-0.49 -0.73,-0.98 -1.11,-1.45 c 0.87,-0.35 1.51,-0.93 1.93,-1.73 c -0.1,-3.9 -0.24,-7.79 -0.41,-11.68 c -0.17,-0.49 -0.5,-0.83 -0.99,-1.01 c -1.32,-0.36 -2.48,-0.11 -3.49,0.76 c -0.38,1.74 -0.9,3.44 -1.58,5.09 c -2.03,-0.62 -1,-4.99 -3.99,-5.33 c -2.15,-0.49 -2.86,1.14 -5.17,-0.05 c -2.96,-0.12 -2.33,2.03 -4,3.44 c -2.23,-0.09 -0.36,-5.26 -6.66,-1.87 c -4.59,-2.76 -8.74,-1.66 -10.27,3.79 c -0.48,2.95 0.03,5.7 1.54,8.26 c -0.75,0.31 -1.3,0.82 -1.63,1.55 c 0.86,0.5 1.73,0.95 2.62,1.34 c -1.08,-0.26 -1.98,0.02 -2.7,0.84 c -0.24,3.28 -0.33,6.56 -0.27,9.86 c 0.31,1.3 1.14,1.74 2.49,1.3 c 1.54,-0.6 0.48,-2.27 1.08,-3.41 c 0.96,0.93 1.79,1.96 2.5,3.1 c 5.4,1.43 1.68,-2.73 3.57,-4.41 c 0.44,1.13 0.95,2.21 1.53,3.26 c 2.56,1.96 5.01,1.82 7.34,-0.41 c 0.57,-1.15 0.92,-2.36 1.06,-3.64 c 0.68,1.2 1.32,2.42 1.93,3.66 c 2.61,2.3 6.96,1.42 7.9,-1.99 c 0.16,-0.07 0.32,-0.13 0.48,-0.2 c 0.24,5.33 4.15,1.36 5.84,2.7 c -2.12,2.42 -3.72,3.82 -4.29,7.15 c 0.03,1.18 0.13,2.34 0.3,3.47 c -0.6,0.46 -1.28,0.72 -2.05,0.77 c -8.28,1.18 -16.59,1.45 -24.93,0.82 c -3.72,-0.49 -7.44,-1.01 -11.16,-1.58 c -3.39,-0.75 -6.66,-1.85 -9.8,-3.31 c -0.53,-0.51 -0.77,-1.14 -0.72,-1.89 c 3.24,0.24 6.47,0.6 9.71,1.08 c 0.41,0.04 0.72,-0.1 0.94,-0.4 c -1.84,-1.41 -5.32,-1.8 -6.24,-4.09 c 0.79,-0.41 1.58,-0.81 2.37,-1.22 c 0.24,-0.5 0.28,-1.01 0.12,-1.54 c -2.14,-4.01 -2.66,-8.64 -4.37,-12.84 c -0.64,-2.13 1.19,-2.94 -0.65,-4.87 c 4.08,-4.44 6.36,-9.69 6.82,-15.73 c 0.07,-5.4 0.11,-10.59 -2.03,-15.67 c -0.91,-1.11 -1.57,-2.37 -1.96,-3.75 c 0.87,-2.31 2.33,1.66 2.7,2.24 c 1.16,1.5 2.55,2.71 4.19,3.61 c 2.02,-1.57 -3.27,-3.58 -0.54,-5.07 Z M 93.27,145.16 c 0.14,-0.09 0.28,-0.17 0.43,-0.26 c 0.04,0.34 -0.01,0.67 -0.15,0.98 c -0.18,-0.2 -0.27,-0.45 -0.28,-0.72 Z"/>
<path fill="#efd109" d="M 118.97,139.27 c 0.38,0.47 0.75,0.96 1.11,1.45 c -4.23,-0.2 -5.52,-0.81 -5.99,3.88 c -0.15,0.1 -0.3,0.2 -0.45,0.3 c -0.63,-1.03 -1.3,-2.05 -1.99,-3.06 c -3.61,-1.68 -6.02,-0.63 -7.22,3.14 c -1.4,2.17 -1.29,-1.15 -2,-1.93 c -3.04,-3.8 -6.66,-1.49 -8.73,1.85 c -0.15,0.09 -0.29,0.17 -0.43,0.26 c -0.14,-0.86 -0.3,-1.71 -0.47,-2.56 c -2.58,-3.03 -3.17,1.39 -3.34,3.05 c -1.36,-0.37 -1.72,-2.82 -2.59,-3.82 c -0.89,-0.39 -1.76,-0.84 -2.62,-1.34 c 0.33,-0.73 0.88,-1.24 1.63,-1.55 c 2.83,1.69 5.59,1.61 8.3,-0.23 c 0.79,-1.32 2.87,-5.83 0.24,-6.35 c -1.65,-0.22 -4.62,-0.58 -4.03,2.03 c 1.74,1.38 1.48,2.13 -0.78,2.25 c -0.68,-0.16 -1.11,-0.58 -1.28,-1.26 c 0.11,-1.41 -0.55,-5.53 1.36,-6.11 c 1.27,0.35 2.55,0.65 3.85,0.92 c 0.27,-0.1 0.54,-0.21 0.82,-0.31 c 0.5,-0.71 1.3,-2.94 2.18,-0.99 c 2.49,4.03 3.22,5.42 2.76,10.44 c 0.88,0.42 1.81,0.5 2.81,0.26 c 2.06,-0.5 0.81,-5.04 1.37,-6.57 c 0.7,-1.57 1.42,-3.14 2.14,-4.7 c 0.67,-1.37 1.23,-1.34 1.67,0.08 c -0.02,2.7 -0.02,5.4 0,8.1 c -0.19,2.43 1.87,3.87 3.67,1.86 c 0.03,-1.12 0.21,-2.18 0.55,-3.19 c 1.34,0.21 1.24,2.1 2.21,2.88 c 2.25,0.53 1.8,-2.55 2.8,-3.73 c 0.63,1.14 0.95,2.38 0.96,3.72 c 0.37,0.56 0.86,0.97 1.49,1.23 Z M 113.78,149.79 c -0.16,0.07 -0.32,0.13 -0.48,0.2 c 0.02,-0.28 0.12,-0.52 0.29,-0.74 c 0.16,0.14 0.22,0.32 0.19,0.54 Z"/>
<path fill="#e0a802" d="M 78.03,99.67 c -2.73,1.49 2.56,3.5 0.54,5.07 c -1.64,-0.9 -3.03,-2.11 -4.19,-3.61 c -0.37,-0.58 -1.83,-4.55 -2.7,-2.24 c -0.58,-0.2 -1.9,-1.23 -1.09,-1.84 c 3.06,-0.75 5.54,0.13 7.44,2.62 Z"/>
<path fill="#facc8c" stroke="#facc8c" stroke-width="0.5" d="M 163.32,133.05 c 0.5,2.4 -1.33,3.48 -2.68,5 c -0.95,3.36 -8.18,13.09 -11.57,12.99 c -2.21,-3.9 -5.45,-6.47 -9.73,-7.72 c -2.41,-0.73 0.06,-4.56 0.47,-5.93 c 1.34,-2.18 2.95,-4.13 4.83,-5.87 c -1.2,-0.76 -2.48,1.28 -3.7,1.54 c -3.31,-0.53 -4.96,-3.05 -8,-4.11 c 0.25,-3.26 0.09,-6.49 -0.49,-9.69 c -0.52,0.84 -0.9,1.74 -1.14,2.71 c -0.81,-0.93 -1.15,-4.85 -2.21,-5.03 c -0.01,-2.76 -2.9,-9.86 -5.35,-11.73 c -0.09,-2.09 -1.69,-2.95 -2.4,-4.69 c 8.67,-1.43 17.86,3.32 20.81,11.86 c 0.7,0.29 1.44,0.48 2.22,0.57 c 4.04,1.8 7.43,4.44 10.18,7.94 c 2.9,4.07 6.64,7.57 8.76,12.16 Z"/>
<path fill="#171310" stroke="#171310" stroke-width="0.5" d="M 84.97,59.97 c 0.66,-2.71 1.69,-5.88 5.2,-4.51 c 5.81,5.23 0.76,14 -3.99,8.82 c -0.79,-1.33 -1.19,-2.77 -1.21,-4.31 Z"/>
<path fill="#d0342c" d="M 57.14,59.79 c -0.76,0.52 -1.39,1.16 -1.87,1.93 c -1.21,2.44 -2.53,4.81 -3.94,7.1 c -1.29,1.17 -2.54,1.18 -3.75,0.01 c -0.32,-1.1 -0.61,-2.21 -0.86,-3.34 c -0.18,-3.62 2.65,-5.91 5.09,-8.09 c 0.76,-0.2 2.4,-0.93 2.87,0.04 c -1.69,1.54 -4.42,2.43 -3.2,5.21 c 1.36,-1.23 2.73,-2.44 4.12,-3.63 c 0.77,-0.21 1.28,0.05 1.54,0.77 Z"/>
<path fill="#171310" stroke="#171310" stroke-width="0.5" d="M 108.66,55.27 c 3.11,-1.12 4.96,-0.03 5.54,3.27 c 0.39,2.38 -0.28,4.4 -2.03,6.05 c -0.63,0.46 -2.3,0.31 -2.19,1.37 c -0.48,0 -0.77,-0.23 -0.86,-0.7 c -0.67,-1.75 -1.33,-3.49 -1.95,-5.23 c 0.07,-0.33 0.13,-0.66 0.2,-1 c 0.29,-0.65 0.46,-1.34 0.52,-2.06 c 0.25,-0.59 0.51,-1.15 0.77,-1.7 Z M 108.98,57.05 c 0.16,1.93 0.79,2.09 1.89,0.48 c -0.49,-0.61 -1.12,-0.77 -1.89,-0.48 Z"/>
<path fill="#5e4d3c" d="M 93.76,50.99 c 1.81,1.52 3.08,3.42 3.79,5.69 c 0.35,1.29 0.13,2.44 -0.65,3.46 c -0.51,-1.37 -0.96,-2.77 -1.36,-4.19 c -1.25,-2.86 -3.4,-4.36 -6.47,-4.49 c -5.94,1.18 -7.41,7.89 -5.09,12.81 c -0.03,0.49 -0.18,0.94 -0.46,1.32 c -3.24,-4.65 -3.08,-9.2 0.47,-13.65 c 3.01,-2.84 6.26,-3.16 9.77,-0.95 Z"/>
<path fill="#342b0e" d="M 91.71,112.87 c 3.52,0.87 6.09,2.23 9.86,2.21 c 1.51,-0.26 3.03,-0.42 4.55,-0.48 c 1.32,-0.66 2.7,-1.14 4.13,-1.46 c 0.3,0.09 0.51,0.27 0.64,0.54 c -3.2,5.06 -15.97,4.18 -19.82,-0.03 c 0.21,-0.26 0.43,-0.52 0.64,-0.78 Z"/>
<path fill="#2b2109" d="M 79.95,100.31 c 0.34,-0.01 0.62,0.11 0.85,0.36 c 2.38,2.98 4.75,5.96 7.11,8.95 c 0.46,1.03 3.99,2.4 3.8,3.25 c -0.21,0.26 -0.43,0.52 -0.64,0.78 c -5,-1.69 -8.57,-8.7 -11.92,-12.57 c 0.29,-0.24 0.56,-0.49 0.8,-0.77 Z"/>
<path fill="#331f11" d="M 109.12,65.26 c 0.09,0.47 0.38,0.7 0.86,0.7 c 0.74,0.3 1.41,0.72 2.01,1.26 c 1.12,4.5 -0.62,7.17 -5.21,8.01 c -0.26,-0.14 -0.42,-0.36 -0.47,-0.66 c 1.03,-0.83 3.68,-1.73 3.72,-3.32 c 1.82,-1.22 0.41,-3.92 -1.31,-4.56 c -0.74,-0.5 -4.24,-0.23 -3.41,-1.77 c 1.57,-1.31 1.97,0.48 3.81,0.34 Z M 67.73,70.92 c 0.1,0.28 0.19,0.56 0.29,0.84 c -0.42,0.11 -0.84,0.14 -1.27,0.08 c -0.75,-0.56 -1.51,-1.09 -2.29,-1.59 c -1.16,0.79 -1.65,1.88 -1.48,3.28 c 1.12,0.86 2.35,1.52 3.7,2.01 c -1.43,0.35 -2.74,0.06 -3.92,-0.87 c -4.18,-3.29 2.93,-7.07 -1.67,-8.17 c -0.96,0.21 -1.89,0.2 -2.77,-0.02 c 0.57,-3.06 4.87,-0.69 6.2,0.49 c 1.08,1.33 2.15,2.65 3.21,3.95 Z"/>
<path fill="#3a1607" d="M 47.92,47.89 c -0.31,0.83 -0.62,1.66 -0.93,2.49 c -0.31,3.2 0.61,3.42 2.99,4.89 c -0.6,0.34 -1.22,0.64 -1.86,0.9 c -1.17,-0.36 -2.11,-1.04 -2.82,-2.03 c -1.8,-2.67 -0.65,-5.87 2.62,-6.25 Z"/>
<path fill="#410f05" d="M 57.06,47.17 c 0.32,0 0.53,0.16 0.62,0.47 c -0.05,1.65 -1.11,2.86 0.57,4.04 c -3.1,1.16 -1.12,4.65 0.29,6.24 c 2.18,-0.52 -1.31,-4.42 -0.29,-6.24 c 0.61,-0.25 0.93,-0.75 0.97,-1.48 c 0.53,0.58 1.1,0.66 1.72,0.24 c 0.96,-1.56 2.15,-2.91 3.59,-4.05 c 0.15,0.48 0.08,0.92 -0.2,1.35 c -1.29,2.21 -4.06,4.59 -3.7,7.3 c -0.26,1.08 -0.46,2.19 -0.62,3.33 c -0.8,0.78 -1.76,1.25 -2.87,1.42 c -0.26,-0.72 -0.77,-0.98 -1.54,-0.77 c -1.39,1.19 -2.76,2.4 -4.12,3.63 c -1.22,-2.78 1.51,-3.67 3.2,-5.21 c -0.47,-0.97 -2.11,-0.24 -2.87,-0.04 c -2.44,2.18 -5.27,4.47 -5.09,8.09 c 0.25,1.13 0.54,2.24 0.86,3.34 c -0.22,0.66 -0.37,1.33 -0.45,2.02 c -1.29,0.25 -0.62,-2.6 -1.2,-3.26 c -0.71,-0.89 -1.25,-1.85 -1.62,-2.88 c 0.76,-2.35 3.64,-5.46 5.36,-7.25 c -0.53,-0.42 -1.05,-0.85 -1.55,-1.29 c 0.64,-0.26 1.26,-0.56 1.86,-0.9 c 2.13,0.03 6.02,0.69 4.35,-2.75 c 0.69,-1.19 3.02,-2.01 1.14,-3.51 c -1.9,-0.68 -3.87,-1.07 -5.89,-1.19 c -0.32,-0.04 -0.52,-0.21 -0.6,-0.5 c 0.47,-0.4 1,-0.73 1.57,-0.97 c 1.78,0.24 3.5,0.69 5.16,1.36 c 0.62,0.19 1.07,0.01 1.35,-0.54 Z"/>
<path fill="#d0342c" stroke="#d0342c" stroke-width="0.5" d="M 133.32,149.63 c 0.23,-2.95 1.83,-5.42 5.21,-4.58 c 5.32,1.33 8.44,4.75 10.05,9.9 c 1.12,4.13 -1.76,2.99 -3.61,5.53 c -0.37,0.36 -0.8,0.47 -1.29,0.34 c -2.35,-5.19 -5,-8.79 -10.36,-11.19 Z"/>
<path fill="#d0342c" stroke="#d0342c" stroke-width="0.5" d="M 22.63,116.65 c 0.24,-0.24 0.54,-0.37 0.9,-0.39 c 6.84,2.08 20.9,1.26 22.13,-7.9 c -0.36,-1.22 -0.52,-2.46 -0.46,-3.72 c 0.47,-0.32 0.9,-0.23 1.27,0.25 c 4.96,13.53 -15.67,24.41 -23.84,11.76 Z"/>
<path fill="#6d3711" d="M 63.24,124.78 c 0.45,-2.58 5.9,0.58 4.18,2.97 c -1.31,-1.1 -2.7,-2.09 -4.18,-2.97 Z"/>
<path fill="#634e37" d="M 85.07,65.98 c 1.69,0.55 3.43,0.99 5.21,1.34 c 0,1.43 -5.05,1.35 -5.21,-1.34 Z"/>
<path fill="#824b28" d="M 141.7,162.92 c 0.08,0.74 0.16,1.48 0.25,2.21 c -0.3,-0.07 -0.61,-0.14 -0.91,-0.21 c -0.25,-0.86 -0.03,-1.52 0.66,-2 Z"/>
<path fill="#332e24" d="M 109.17,86.74 c -0.16,-0.2 -0.32,-0.4 -0.48,-0.59 c 0.3,-0.92 0.2,-1.8 -0.3,-2.62 c 0.82,-0.7 3.85,-1.92 3.04,-3.33 c -3.87,0.08 -7.73,-0.08 -11.59,-0.47 c 0.11,-0.51 0.2,-1.03 0.29,-1.55 c 2.45,0.56 4.94,0.78 7.45,0.67 c 1.61,-0.36 3.23,-0.56 4.87,-0.61 c 0.77,-0.28 1.53,-0.59 2.27,-0.93 c 1.16,0 1.28,0.39 0.36,1.15 c -0.73,0.3 -1.39,0.7 -1.98,1.21 c -0.47,2.81 -1.78,5.17 -3.93,7.07 Z"/>
<path fill="#342d26" d="M 100.13,78.18 c -0.09,0.52 -0.18,1.04 -0.29,1.55 c -4.44,-0.94 -9.91,-2.42 -13.44,-5.37 c -1.8,0.65 -1.09,2.69 -0.22,3.85 c 1.13,1.24 2.32,2.43 3.56,3.56 c 0.72,0.33 1.44,0.64 2.18,0.93 c 1.48,1.16 0.03,1.17 -0.72,0.68 c -1.32,-0.59 -2.55,-1.31 -3.7,-2.16 c -0.35,0.53 -0.32,1.07 0.1,1.62 c 2.81,4.74 7.8,5.45 12.85,5.86 c 1.3,-0.32 2.61,-0.57 3.94,-0.74 c 1.42,-0.67 2.85,-1.27 4.3,-1.81 c 0.16,0.19 0.32,0.39 0.48,0.59 c -0.85,0.47 -1.63,1.04 -2.35,1.71 c -1.15,0.45 -2.31,0.87 -3.49,1.24 c -6.9,0.05 -11.37,0.12 -16.33,-5.23 c -2.14,-3.21 -3.38,-4.91 -3.94,-8.86 c -0.55,-0.41 -1.13,-0.74 -1.75,-0.99 c 0.94,-2.45 3.65,-4.48 6.16,-2.68 c 0.47,1.87 1.65,3.05 3.53,3.55 c 2.94,1.26 5.98,2.16 9.13,2.7 Z"/>
<path fill="#2c210f" d="M 123.75,105.21 c 2.45,1.87 5.34,8.97 5.35,11.73 c -0.23,0.34 -0.47,0.67 -0.71,1.01 c -1.51,-3.45 -3.1,-6.86 -4.77,-10.24 c -0.26,-0.61 -0.42,-1.25 -0.48,-1.91 c 0.15,-0.26 0.35,-0.46 0.61,-0.59 Z"/>
</svg>
